<?xml version="1.0" encoding="utf-8"?>
<!-- Generator: Adobe Illustrator 19.0.0, SVG Export Plug-In . SVG Version: 6.00 Build 0)  -->
<svg version="1.1" id="Layer_1" xmlns="http://www.w3.org/2000/svg" xmlns:xlink="http://www.w3.org/1999/xlink" x="0px" y="0px"
	 viewBox="27 30.7 154 42.7" style="enable-background:new 27 30.7 154 42.7;" xml:space="preserve">
<style type="text/css">
	.st0{fill:#1EA7D4;}
</style>
<path class="st0" d="M37.4,43.2c1.8,0,2.9,0.6,4.4,2.1l3.2-3c-2.2-2.3-4.4-3.2-7.6-3.2c-5.2,0-10.2,3.1-10.2,11.6
	s5.1,11.6,10.2,11.6c3.2,0,5.4-0.9,7.6-3.2l-3.2-3c-1.4,1.6-2.6,2.1-4.4,2.1c-1.8,0-3.3-0.7-4.3-2c-1-1.2-1.4-2.9-1.4-5.5
	c0-2.6,0.4-4.2,1.4-5.5C34.1,43.9,35.6,43.2,37.4,43.2z M60.6,39.2c-5.9,0-9.7,4.2-9.7,11.6c0,8.6,4.6,11.6,10.3,11.6
	c4,0,6.2-1.2,8.6-3.5l-2.9-2.7c-1.6,1.6-3,2.3-5.6,2.3c-3.7,0-5.8-2.3-5.8-6.1h14.9V50C70.3,43.6,66.7,39.2,60.6,39.2z M55.4,48.7
	c0-1.3,0.1-1.9,0.6-2.9c0.7-1.7,2.4-2.9,4.6-2.9c2.2,0,3.8,1.2,4.5,2.9c0.4,1,0.6,1.6,0.6,2.9H55.4z M83.2,55.5V39.4h-4.6v16.4
	c0,3.3,1.9,6.2,6.3,6.2h3.2v-3.9h-2.4C83.8,58.2,83.2,57.3,83.2,55.5z M104.1,39.2c-3.1,0-5.3,1.2-6.8,2.7c-2.2,2.2-2.7,5.1-2.7,8.9
	c0,3.8,0.5,6.7,2.7,8.9c1.5,1.5,3.7,2.7,6.8,2.7c3.1,0,5.4-1.2,6.9-2.7c2.2-2.2,2.7-5.1,2.7-8.9c0-3.8-0.5-6.6-2.7-8.9
	C109.5,40.3,107.2,39.2,104.1,39.2z M107.5,56.9c-0.9,0.8-2,1.3-3.4,1.3c-1.4,0-2.5-0.5-3.3-1.3c-1.4-1.4-1.6-3.7-1.6-6.2
	c0-2.5,0.2-4.8,1.6-6.2c0.9-0.8,2-1.3,3.3-1.3c1.4,0,2.5,0.4,3.4,1.3c1.4,1.4,1.6,3.7,1.6,6.2C109.1,53.2,108.9,55.5,107.5,56.9z
	 M149,62h4.6V39.4H149V62z M173.6,48.8l-3.6-0.3c-2.4-0.2-3.2-1.2-3.2-2.6c0-1.7,1.4-2.9,4.2-2.9c2.2,0,4.2,0.4,5.7,1.6l2.9-2.9
	c-2.1-1.8-5.1-2.5-8.5-2.5c-4.8,0-8.6,2.5-8.6,6.9c0,4,2.5,5.9,6.8,6.2l3.7,0.3c2.2,0.2,3.1,1.2,3.1,2.7c0,2.1-2.2,3.1-5,3.1
	c-2.3,0-4.7-0.5-6.6-2.4l-3,3c2.7,2.6,5.9,3.3,9.6,3.3c5.5,0,9.5-2.5,9.5-7.2C180.4,51.1,177.9,49.1,173.6,48.8z M130.4,39.2
	c-2.7,0-4.8,0.9-6.6,2.7c-2.7,2.6-2.8,6.1-2.8,9.1V62h4.5V51c0-2-0.1-4.7,1.5-6.2c1-1,1.9-1.5,3.3-1.5c1.4,0,2.3,0.5,3.3,1.5
	c1.6,1.6,1.5,4.2,1.5,6.2V62h4.5V51c0-3-0.1-6.5-2.8-9.1C135.2,40.1,133.1,39.2,130.4,39.2z"/>
</svg>
