<?xml version="1.0" encoding="utf-8"?>
<!-- Generator: Adobe Illustrator 19.0.0, SVG Export Plug-In . SVG Version: 6.00 Build 0)  -->
<svg version="1.1" id="Layer_1" xmlns="http://www.w3.org/2000/svg" xmlns:xlink="http://www.w3.org/1999/xlink" x="0px" y="0px"
	 viewBox="0 0 373 78" style="enable-background:new 0 0 373 78;" xml:space="preserve">
<style type="text/css">
	.st0{clip-path:url(#SVGID_2_);fill:#CC862A;}
	.st1{clip-path:url(#SVGID_2_);fill:#A67029;}
	.st2{clip-path:url(#SVGID_2_);fill:#EFE33F;}
	.st3{clip-path:url(#SVGID_2_);fill:#E8D619;}
	.st4{clip-path:url(#SVGID_2_);fill:#F9A923;}
	.st5{clip-path:url(#SVGID_2_);fill:#E99C23;}
	.st6{clip-path:url(#SVGID_2_);fill:#F38920;}
	.st7{clip-path:url(#SVGID_2_);fill:#E28226;}
</style>
<g>
	<defs>
		<rect id="SVGID_1_" width="373" height="78"/>
	</defs>
	<clipPath id="SVGID_2_">
		<use xlink:href="#SVGID_1_"  style="overflow:visible;"/>
	</clipPath>
	<path class="st0" d="M54.9,39.5c0,0-7.9-17.7-12.3-14.5c0,0-1.3,1.2-2.8,3.2L50,56.3c1.1-1.8,2.4-4,3-6.6
		C53,49.7,55.3,42,54.9,39.5"/>
	<path class="st1" d="M34.6,40.8c0,0-0.1,5.1,2.5,9.9c0,0,3.1,6.6,6.7,9.6c0,0,2.1,1.7,3.3-0.3c0,0,1.4-1.4,2.9-3.6L39.8,28.1
		C37.6,31.1,34.8,35.7,34.6,40.8"/>
	<path class="st2" d="M35.6,56.6l-9.1,10c0,0.5,0.1,0.9,0.6,0.9c0.7,0,1.9-0.4,3.2-1.1c1.3-0.7,7.5-4.3,7.5-4.3
		c0.5-0.5,0.5-0.5,0.5-0.5C38,60.3,36.8,58.4,35.6,56.6"/>
	<path class="st3" d="M32.4,52.4c-0.6-1.3-1-0.8-1.4-0.5c-0.3,0.3-1.7,2.3-2.5,4.8c-0.8,2.5-1.8,8.6-1.9,9.4c0,0.2,0,0.4,0,0.6
		l9.1-10C34.1,54.3,32.4,52.4,32.4,52.4"/>
	<path class="st4" d="M5.9,42.9C-1.8,50.7,10,67.8,10,67.8c2,0.6,9,0.6,9.8,0.5l-12-23.8C6.6,43.6,5.9,42.9,5.9,42.9"/>
	<path class="st5" d="M22.3,65.5c0.1-1-0.2-14.4-0.3-15.5c0-1.1-0.3-0.9-0.3-0.9c-5.9,0.8-11.2-2.5-14-4.5l12,23.8h0.1
		C22.7,68.4,22.2,66.5,22.3,65.5"/>
	<path class="st6" d="M21.7,6.8c0,0-0.7-0.8-1.8,0.2c-1.1,1-16.5,12-14.6,31l12.3,4.2l8.8-30.6C24.8,9.6,23.1,7.9,21.7,6.8"/>
	<path class="st7" d="M36.3,24.6c0,0-5-7.4-9.9-13.1l-8.8,30.6l8.9,3C26.5,45.2,28.3,27.1,36.3,24.6"/>
	<path class="st7" d="M369.7,31.7c0-1-0.1-2-0.3-3c-0.8-4-2.9-7.1-6.8-8.7c-2.7-1.2-5.6-1.1-8.5-0.6c-3,0.5-5.8,1.6-8.4,3.1
		c-0.4,0.2-0.7,0.2-1.1-0.1c-1.9-1.8-4.2-2.9-6.8-3.1c-3.7-0.3-7.2,0.4-10.5,2.1c-0.2,0.1-0.4,0.2-0.8,0.4c0-0.6,0-1,0-1.4
		c0-0.4-0.1-0.6-0.6-0.6c-1.3,0-2.6,0-3.9,0c-0.8,0-0.8,0-0.8,0.8v24.7c0,4.2,0,8.4,0,12.5c0,0.5,0.2,0.7,0.7,0.7c1.3,0,2.6,0,3.9,0
		c0.9,0,0.9,0,0.9-0.8c0-10.1,0-20.2,0-30.3c0-0.6,0.2-0.9,0.7-1.1c2.8-1.5,5.9-2.2,9.1-1.9c2.9,0.3,5.1,1.7,6.3,4.5
		c0.5,1.2,0.7,2.4,0.7,3.6c0,8.5,0,16.9,0,25.4c0,0.6,0.2,0.8,0.7,0.7c1.3,0,2.7,0,4,0c0.5,0,0.7-0.1,0.7-0.7c0-8.9,0-17.9,0-26.8
		c0-1-0.3-2-0.4-3c-0.1-0.5-0.5-1.2-0.4-1.5c0.2-0.4,0.9-0.6,1.4-0.8c2.8-1.5,5.9-1.9,9-1.4c2.6,0.4,4.3,1.9,5,4.4
		c0.3,1,0.5,2.2,0.5,3.3c0,8.6,0,17.2,0,25.8c0,0.6,0.2,0.7,0.7,0.7c1.3,0,2.6,0,3.9,0c0.8,0,0.8,0,0.8-0.8
		C369.7,49,369.7,40.3,369.7,31.7"/>
	<path class="st7" d="M95,19.7c-1,0-2,0-3,0c-1.5,0-1.5,0-1.5,1.5c0,0.6-0.1,1.1-0.1,1.7c-0.1,0-0.1,0-0.2,0.1
		c-0.1-0.1-0.1-0.2-0.2-0.3C88.7,21,87,20,85,19.5c-2.6-0.7-5.2-0.6-7.8-0.1c-3.5,0.7-6.4,2.3-8.5,5.3c-1.6,2.3-2.3,5-2.3,7.7
		c-0.1,4-0.1,8.1,0,12.1c0,1.5,0.1,3,0.4,4.4c0.8,4.3,3.1,7.5,7.2,9.2c3.1,1.3,6.3,1.4,9.5,1c2.6-0.4,4.7-1.6,6.2-3.8
		c0-0.1,0.1-0.1,0.3-0.3c0,0.3,0,0.5,0,0.7c0,2.6,0,5.1,0,7.7c0,0.7-0.1,1.5-0.3,2.2c-0.6,2.3-2.1,3.9-4.3,4.6
		c-0.5,0.2-0.6,0.3-0.4,0.8c0.4,1,0.7,2.1,1,3.2c0.1,0.4,0.3,0.4,0.6,0.4c0.6-0.2,1.2-0.3,1.7-0.5c2.1-0.7,4-1.7,5.3-3.6
		c1.4-1.9,1.8-4.2,1.8-6.4c0-11.3,0-22.5,0-33.8c0-3.3,0-6.7,0-10C95.6,19.8,95.5,19.7,95,19.7 M90.1,44.5c0,2.2-0.5,4.4-1.9,6.2
		c-1.6,2.2-3.8,3.3-6.5,3.5c-1.5,0.1-3.1,0-4.6-0.5c-3.1-1.1-4.8-3.5-5.1-6.7c-0.2-2.6-0.2-5.1-0.2-7.7c0,0,0,0,0.1,0
		c0-2.1-0.1-4.3,0-6.5c0.1-2,0.5-3.8,1.7-5.4c1.6-2.1,3.8-3.1,6.3-3.2c2.4-0.2,4.7,0.2,6.8,1.6c1.9,1.3,2.9,3.1,3.2,5.4
		c0.1,0.7,0.1,1.4,0.1,2.2C90.1,37.1,90.2,40.8,90.1,44.5"/>
	<path class="st7" d="M182.2,23.7c-0.3-0.4-0.6-0.8-1-1.1c-1.5-1.2-3.1-2.2-5-2.7c-2.3-0.7-4.7-0.8-7.1-0.8c-0.4,0-0.5,0.2-0.5,0.5
		c-0.1,1-0.2,2-0.3,3c0,0.4,0.1,0.5,0.5,0.5c0.8,0,1.6,0,2.3,0.1c1.6,0.2,3.2,0.6,4.6,1.4c2.5,1.4,3.6,4.2,3.3,6.4
		c-0.1,0-0.1,0-0.2,0c-0.1-0.1-0.2-0.1-0.3-0.2c-4.8-3-10.1-4-15.6-3.1c-4.4,0.7-7.3,3.7-7.8,8.2c-0.2,1.6-0.2,3.3-0.2,5
		c0,2.5,0,5,0.3,7.5c0.5,3.9,2.6,6.9,6.1,8.7c2.7,1.4,5.6,1.9,8.6,2c2.7,0.1,5.4-0.1,8.1-0.2c2-0.1,3.9-0.3,5.9-0.4
		c0.6,0,0.7-0.3,0.7-0.8c0-8.9-0.1-17.8-0.1-26.7C184.5,28.3,183.6,25.9,182.2,23.7 M178.5,54c-1.7,0.1-3.4,0.3-5,0.4
		c-2.1,0.1-4.1,0-6.1-0.5c-1.9-0.5-3.7-1.2-5-2.8c-1.3-1.4-1.8-3.2-1.9-5c0-2.4,0-4.8,0-7.2c0-3.7,2.5-6.1,6.2-6.2
		c2.6,0,5.1,0.6,7.5,1.4c1.5,0.5,3,1.2,4.5,1.8c0.4,0.2,0.6,0.5,0.6,0.9c0,2.7,0,5.5,0,8.2c0,2.7,0,5.5,0,8.2
		C179.2,53.7,179,53.9,178.5,54"/>
	<path class="st7" d="M235.7,23.8c-0.3-0.4-0.6-0.8-0.9-1.1c-1.6-1.3-3.4-2.4-5.4-2.9c-2.2-0.6-4.4-0.7-6.7-0.7
		c-0.4,0-0.5,0.1-0.6,0.5c-0.1,1-0.2,2-0.3,3.1c0,0.4,0.1,0.5,0.5,0.5c0.8,0,1.6,0,2.3,0.1c1.7,0.2,3.3,0.6,4.7,1.5
		c2.5,1.5,3.5,4.4,3.2,6.4c-0.1,0-0.1,0-0.2,0c-0.1,0-0.2-0.1-0.3-0.1c-4.8-3-10.1-4-15.6-3.1c-5.1,0.9-7.6,4.3-8,9.1
		c-0.2,2.1-0.1,4.3-0.1,6.4c0,1.7,0,3.5,0.3,5.2c0.6,3.9,2.6,6.9,6.2,8.7c2.7,1.4,5.6,1.9,8.6,2c2.7,0.1,5.4-0.1,8.1-0.2
		c2-0.1,4-0.3,5.9-0.4c0.6,0,0.6-0.3,0.6-0.7c0-8.9-0.1-17.8-0.1-26.7C237.9,28.4,237,26,235.7,23.8 M231.8,54
		c-1.7,0.1-3.4,0.3-5,0.4c-2.4,0.1-4.7,0-6.9-0.7c-2.5-0.8-4.5-2.2-5.4-4.8c-0.3-0.9-0.5-1.8-0.5-2.7c-0.1-2.5-0.1-4.9,0-7.4
		c0.1-2.9,1.2-5,4.8-5.9c1.4-0.3,2.8-0.2,4.2,0.1c3.2,0.5,6.3,1.5,9.2,2.9c0.5,0.2,0.6,0.5,0.6,1c0,2.7,0,5.5,0,8.2
		c0,2.7,0,5.4,0,8.1C232.6,53.8,232.3,53.9,231.8,54"/>
	<path class="st7" d="M313.5,36c0-2.2,0-4.4-0.5-6.5c-1.2-5.1-4.1-8.6-9.2-10c-2.9-0.8-5.8-0.8-8.8-0.2c-4.4,0.9-7.5,3.4-9.2,7.7
		c-0.9,2.2-1.1,4.6-1.2,7c-0.1,3.4-0.1,6.7,0,10.1c0,1.7,0.2,3.4,0.6,5c1.2,4.7,3.9,8.2,8.7,9.6c3,0.9,6.1,0.9,9.1,0.3
		c3.4-0.7,6.1-2.4,7.9-5.4c1.7-2.7,2.3-5.6,2.4-8.7c0.1-1.9,0-3.7,0-5.6C313.5,38.1,313.5,37,313.5,36 M308.1,45.5
		c-0.1,2.6-0.8,5-2.9,6.8c-1.4,1.2-3,1.7-4.8,1.9c-1.8,0.2-3.6,0-5.3-0.7c-3-1.3-4.6-3.7-4.8-6.9c-0.2-4.3-0.1-8.7-0.1-13
		c0-1.5,0.2-3,0.8-4.4c1.1-2.9,3.3-4.4,6.3-4.9c1.6-0.2,3.2-0.2,4.8,0.2c3.2,0.8,5,2.9,5.7,6c0.2,1.1,0.3,2.3,0.4,3.5
		c0.1,1.8,0,3.6,0,5.4C308.1,41.4,308.1,43.4,308.1,45.5"/>
	<path class="st7" d="M207.1,3.5c-2.7-0.5-5.2,0-7.7,1c-2.2,0.9-3.8,2.4-4.8,4.5c-1.1,2.2-1.4,4.5-1.4,6.8c0,12.7,0,25.4,0,38.1
		c0,1.3,0,2.5,0,3.8c0,0.5,0.2,0.7,0.7,0.7c1.4,0,2.7,0,4.1,0c0.8,0,0.8,0,0.8-0.8c0-10.7,0-21.4,0-32c0-0.8,0-0.8,0.8-0.8
		c1.6,0,3.3,0,4.9,0c0.5,0,0.7-0.1,0.9-0.6c0.4-1.3,0.9-2.6,1.4-3.9c0.1-0.2,0.1-0.3,0.2-0.6h-0.8c-2.3,0-4.5,0-6.8,0
		c-0.3,0-0.6,0-0.6-0.5c0.1-1.8,0-3.7,0.2-5.5c0.1-1.6,0.7-3.1,2.2-4.1c1.6-1.1,3.3-1.5,5.2-1.2c0.5,0.1,0.7,0,0.8-0.6
		c0.2-1.2,0.3-2.4,0.6-3.6C207.8,3.7,207.6,3.6,207.1,3.5"/>
	<path class="st7" d="M277.3,53.3c-0.2,0-0.3,0-0.5,0c-1.6,0.2-3.3,0.5-4.9,0.7c-2.2,0.3-4.3,0.1-6.4-0.4c-2.4-0.6-4.4-1.8-5.5-4.1
		c-0.6-1.3-0.8-2.7-0.8-4.2c0-3.5,0-6.9,0-10.4c0-1.1,0.1-2.2,0.2-3.4c0.6-4.3,4.2-7.4,8.5-7.5c2.1,0,4.1,0.3,6.1,0.8
		c0.9,0.3,1.9,0.5,2.8,0.8c0.5-1.3,0.9-2.5,1.3-3.7c0.1-0.4,0.1-0.6-0.3-0.7c-4-1.8-8.1-2.6-12.5-2c-5.2,0.7-8.6,3.5-10.5,8.4
		c-0.9,2.2-1.1,4.6-1.2,6.9c-0.1,3.2-0.1,6.4,0,9.7c0,1.7,0.2,3.4,0.5,5.1c0.8,4.2,3.1,7.3,7.3,8.8c3.2,1.1,6.5,1.5,9.9,1.3
		c2.3-0.2,4.5-0.6,6.7-1.1c0.3-0.1,0.5-0.1,0.4-0.5C278.1,56.2,277.7,54.7,277.3,53.3"/>
	<path class="st7" d="M112.4,19.7c-3.1,0-6.2,0-9.4,0c-0.2,0-0.4,0-0.7,0.1c0.5,1.6,1,3,1.6,4.5c0.1,0.1,0.3,0.3,0.4,0.3
		c0.8,0.1,1.6,0.2,2.4,0.3c0.9,0.1,1,0.1,1,1c0,9,0,18,0,27c0,3.5,0,7-0.1,10.5c-0.1,3.7-2,6.1-5.6,7.1c0.3,1.3,0.6,2.6,1,3.9
		c0,0.1,0.3,0.3,0.5,0.3c0.7-0.1,1.5-0.1,2.2-0.3c4.3-1.1,7.5-5.2,7.5-10c0-14.7,0-29.3,0-44C113.1,19.8,113,19.7,112.4,19.7"/>
	<path class="st7" d="M157.6,20.1c0-0.1-0.2-0.4-0.4-0.4c-1.7-0.2-3.3-0.4-5-0.5c-3.2-0.1-6.1,0.5-8.8,2.3c-0.1,0.1-0.2,0.1-0.4,0.1
		c0-0.5,0-0.9,0-1.3c0-0.5-0.1-0.6-0.6-0.6c-1.3,0-2.7,0-4,0c-0.5,0-0.7,0.1-0.7,0.7c0,2.4,0,4.9,0,7.3c0,10,0,20,0,30
		c0,0.6,0.2,0.8,0.8,0.8c1.3,0,2.5,0,3.8,0c0.9,0,0.9,0,0.9-0.9c0-9.2,0-18.4,0-27.6c0-1.9,0.8-3.3,2.4-4.4c2.4-1.6,5.1-1.7,7.9-1.3
		c0.9,0.1,1.9,0.4,2.9,0.6C156.7,23.2,157.2,21.7,157.6,20.1"/>
	<path class="st7" d="M128.2,20.5c0-0.6-0.2-0.8-0.8-0.8c-1.3,0-2.6,0-3.9,0c-0.8,0-0.8,0-0.8,0.8v18.6c0,6.2,0,12.5,0,18.7
		c0,0.5,0.1,0.7,0.7,0.7c1.4,0,2.8,0,4.2,0c0.4,0,0.6-0.1,0.6-0.5c0-0.4,0-0.8,0-1.1C128.2,44.7,128.2,32.6,128.2,20.5"/>
	<path class="st7" d="M110.6,3.5c-1.8,0-3.2,1.4-3.2,3.1c0,1.7,1.4,3.1,3.2,3.1c1.7,0,3-1.4,3-3.1C113.6,4.8,112.4,3.5,110.6,3.5"/>
	<path class="st7" d="M125.6,3.5c-1.7,0-3.2,1.4-3.2,3.1c0,1.8,1.7,3.2,3.2,3.1c1.6,0,3.1-1.4,3.1-3.1C128.7,4.7,127,3.4,125.6,3.5"
		/>
	<path class="st7" d="M246.6,52.7c-1.6,0-2.9,1.4-2.9,2.9c0,1.6,1.4,2.9,3,2.9c1.6,0,2.9-1.3,2.8-2.9
		C249.5,54,248.2,52.7,246.6,52.7"/>
</g>
</svg>
