<svg id="Logo_Design" data-name="Logo Design" xmlns="http://www.w3.org/2000/svg" viewBox="0 0 680 283.01"><defs><style>.cls-1{fill:#0055b8;}.cls-2{fill:#ff6b00;}</style></defs><title>inspire11color</title><path class="cls-1" d="M252.85,451.2a38.06,38.06,0,0,0-26.45,9.95c-7.34,6.68-11.07,15.29-11.07,25.61v57.88l2.19.79a42.34,42.34,0,0,0,20.9,0l2.19-.79V486.76a12.41,12.41,0,0,1,3.39-9.15,11.76,11.76,0,0,1,8.85-3.42,11.58,11.58,0,0,1,8.69,3.42,12.41,12.41,0,0,1,3.39,9.15v57.88l2.18.79a42.34,42.34,0,0,0,20.9,0l2.19-.79V486.76c0-10.31-3.69-18.92-11-25.6A37.79,37.79,0,0,0,252.85,451.2Z" transform="translate(-160 -358.26)"/><path class="cls-1" d="M355.75,494.37c-1.85-1.31-6.09-3.69-21.57-9.25-3.7-1.36-5.17-2.44-5.72-3a4.46,4.46,0,0,1-.94-3.26c0-1.65,0-4.71,7.66-4.71,5.24,0,12.28,1.17,20.91,3.49l2.51.67,1.24-2.28c4.31-7.87,4-16.88,4-17.26l-.09-2.32-2.2-.71a87.3,87.3,0,0,0-26.38-4.58c-9.49,0-17.37,2.58-23.41,7.65a25.12,25.12,0,0,0-9.37,20c0,9.8,3.54,17.36,10.48,22.44,3,2.31,9.85,5.35,20.84,9.31,7.81,2.82,7.81,6.24,7.81,7.37,0,.85-.22,2-2,3.39s-4.57,2.3-8.31,2.3c-4.72,0-12.31-1.39-22.55-4.14l-2.2-.59-1.33,1.84a28.79,28.79,0,0,0-4.4,17.88l.15,2.22,2.12.7c10.22,3.37,19.71,5.08,28.21,5.08,10.93,0,19.82-3,26.46-8.89a26.21,26.21,0,0,0,8.93-20C366.64,507.38,363,499.48,355.75,494.37Z" transform="translate(-160 -358.26)"/><path class="cls-1" d="M414.72,451.2a37.35,37.35,0,0,0-26.49,10.32,34.26,34.26,0,0,0-11,25.89v86.86l2.19.79a42.3,42.3,0,0,0,20.89,0l2.19-.79V545a46.7,46.7,0,0,0,12.24,1.74c10.52,0,19.46-3.33,26.56-9.88s10.8-15.54,10.8-26.49V487.41a34.4,34.4,0,0,0-10.94-25.89A37.15,37.15,0,0,0,414.72,451.2Zm-12.24,36.21a13.28,13.28,0,0,1,3.51-9.59,11.43,11.43,0,0,1,8.73-3.63,11.1,11.1,0,0,1,8.55,3.69,13.35,13.35,0,0,1,3.53,9.53v22.92c0,4.38-1.09,7.65-3.33,10-4.47,4.64-12.36,4.12-21,1.14Z" transform="translate(-160 -358.26)"/><path class="cls-1" d="M560.52,453.43l-2.37-.52A72.74,72.74,0,0,0,543.37,451c-10.42,0-19.29,3.32-26.39,9.88s-10.8,15.32-10.8,25.84v57.88l2.19.79a42.3,42.3,0,0,0,20.89,0l2.2-1.19V486.76c0-3.95,1.09-7,3.33-9.33a11.46,11.46,0,0,1,8.74-3.41,60.57,60.57,0,0,1,9.68,1.41l2.2.44,1.22-1.89c5-7.77,4.15-17.71,4.11-18.13Z" transform="translate(-160 -358.26)"/><path class="cls-1" d="M599,451.2a37.91,37.91,0,0,0-26.46,10c-7.34,6.74-11.06,15.38-11.06,25.68v23.57c0,10.64,3.76,19.44,11.15,26.18s16.68,10,27.84,10c8.36,0,18.2-1.64,29.25-4.88l2.23-.66.15-2.32c.7-11.47-4.29-17.74-4.51-18l-1.3-1.6-2,.47c-11.48,2.66-19.49,4-23.81,4s-7.56-1.17-10.06-3.57-3.65-5.53-3.65-9.65v-2.42h49.59V486.92c0-10.3-3.68-18.93-11-25.67A37.58,37.58,0,0,0,599,451.2Zm-12.23,35a12.16,12.16,0,0,1,3.52-8.51,11.93,11.93,0,0,1,8.88-3.53,11.16,11.16,0,0,1,8.56,3.46,12.62,12.62,0,0,1,3.34,8.58Z" transform="translate(-160 -358.26)"/><path class="cls-1" d="M187.05,451a33.81,33.81,0,0,0-10.45,1.32l-2.19.79v91.54l2.19.79a33.85,33.85,0,0,0,10.45,1.31,33.76,33.76,0,0,0,10.45-1.31l2.19-.79V453.1l-2.19-.79A33.81,33.81,0,0,0,187.05,451Z" transform="translate(-160 -358.26)"/><path class="cls-1" d="M478.72,451a33.81,33.81,0,0,0-10.45,1.32l-2.19.79v91.54l2.19.79a42.34,42.34,0,0,0,20.9,0l2.19-.79V453.1l-2.19-.79A33.81,33.81,0,0,0,478.72,451Z" transform="translate(-160 -358.26)"/><path class="cls-2" d="M257.85,426.63,188.59,444.5a6.84,6.84,0,0,1-5-.53l-22.35-12.59c-1.76-1-1.74-1.65.26-1.74l96-4.24C261.41,425.23,261.51,425.69,257.85,426.63Z" transform="translate(-160 -358.26)"/><path class="cls-2" d="M643.28,454a32.26,32.26,0,0,0,3.28,18.61l.93,1.77h15.22v70.28l2.18.8a41.74,41.74,0,0,0,20.75,0l2.18-.8V451.2H643.73Z" transform="translate(-160 -358.26)"/><path class="cls-2" d="M705.5,451.2l-.45,2.77a32.26,32.26,0,0,0,3.28,18.61l.93,1.77h15.22v70.28l2.18.8a41.74,41.74,0,0,0,20.75,0l2.18-.8V451.2Z" transform="translate(-160 -358.26)"/><path class="cls-2" d="M839.19,494.08c.95,0,1.11.42.22,1l-13.22,8.26a4.12,4.12,0,0,1-3,.46l-42.56-8.95c-2-.43-1.68-.69.08-.74Z" transform="translate(-160 -358.26)"/><path class="cls-2" d="M827.87,554.92c.87.41.83.85-.21,1l-15.47,1.89a4.16,4.16,0,0,1-2.92-.85l-34.78-26.09c-1.67-1.25-1.24-1.34.38-.64Z" transform="translate(-160 -358.26)"/><path class="cls-2" d="M791.9,605.28c.61.73.4,1.12-.6.79l-14.83-4.82a4.2,4.2,0,0,1-2.28-2c-3.32-6.22-15.86-29.69-20.5-38.35-1-1.84-.55-1.74.62-.42Z" transform="translate(-160 -358.26)"/><path class="cls-2" d="M738,635.72c.24.92-.12,1.18-.88.46l-11.4-10.64a4.12,4.12,0,0,1-1.22-2.77c-.38-7-1.84-33.61-2.37-43.42-.12-2.08.23-1.81.73-.12Z" transform="translate(-160 -358.26)"/><path class="cls-2" d="M676.32,640.53c-.17.94-.6,1-1,.05-1.44-3.55-4.55-11.27-5.84-14.46a4.13,4.13,0,0,1,.07-3c2.63-6.54,12.54-31.24,16.2-40.36.77-1.93,1-1.54.71.21Z" transform="translate(-160 -358.26)"/><path class="cls-2" d="M618.37,618.82c-.55.78-1,.67-.92-.38.2-3.82.64-12.13.82-15.57a4.19,4.19,0,0,1,1.34-2.72l31.74-29.72c1.52-1.43,1.53-1,.56.49Z" transform="translate(-160 -358.26)"/><path class="cls-2" d="M823.74,434.16c.86-.41,1.18-.09.61.78L815.85,448a4.12,4.12,0,0,1-2.52,1.68L771,459.58c-2,.47-1.82.08-.24-.71Z" transform="translate(-160 -358.26)"/><path class="cls-2" d="M784.41,386.38c.61-.73,1-.58.88.45-.53,3.79-1.69,12-2.17,15.44a4.16,4.16,0,0,1-1.58,2.59l-34.21,26.85c-1.63,1.29-1.61.85-.51-.54Z" transform="translate(-160 -358.26)"/><path class="cls-2" d="M728.57,359.7c.24-.92.69-1,1,0l4.56,14.92a4.13,4.13,0,0,1-.34,3c-3.18,6.29-15.21,30-19.65,38.79-.94,1.86-1.11,1.45-.7-.27Z" transform="translate(-160 -358.26)"/><path class="cls-2" d="M666.68,359.11c-.16-.93.22-1.16.92-.38L678,370.32a4.12,4.12,0,0,1,1,2.87c-.23,7.05-1.1,33.64-1.42,43.47-.06,2.08-.38,1.78-.74,0Z" transform="translate(-160 -358.26)"/><path class="cls-2" d="M610.35,384.74c-.54-.78-.29-1.15.67-.74l14.35,6.1a4.17,4.17,0,0,1,2.1,2.19l17.08,40c.82,1.92.4,1.78-.65.36Z" transform="translate(-160 -358.26)"/></svg>