<?xml version="1.0" encoding="utf-8"?>
<!-- Generator: Adobe Illustrator 19.0.0, SVG Export Plug-In . SVG Version: 6.00 Build 0)  -->
<svg version="1.1" id="svg" xmlns="http://www.w3.org/2000/svg" xmlns:xlink="http://www.w3.org/1999/xlink" x="0px" y="0px"
	 viewBox="46 -23.7 648 147.7" style="enable-background:new 46 -23.7 648 147.7;" xml:space="preserve">
<style type="text/css">
	.st0{fill:#54BC64;}
	.st1{fill:#141424;}
	.st2{fill:#38C044;}
</style>
<g id="svgg">
	<path id="path0" class="st0" d="M193.6-17.4c-0.1,0.3-0.2,0.7-0.2,0.8c-0.1,0.2-0.2,0.7-0.4,1.9c-0.1,0.3-0.2,0.6-0.2,0.7
		c-0.1,0-0.2,0.3-0.2,0.5c0,0.2-0.2,0.6-0.3,0.8c-0.1,0.2-0.2,0.6-0.2,0.8c0,0.3-0.1,0.5-0.2,0.6c-0.1,0.1-0.2,0.4-0.2,0.7
		c0,0.3-0.1,0.6-0.2,0.6s-0.2,0.2-0.2,0.5c0,0.3-0.1,0.7-0.3,0.9c-0.1,0.3-0.2,0.7-0.2,0.9c0,0.2-0.1,0.4-0.2,0.5
		c-0.1,0.1-0.2,0.4-0.2,0.8c0,0.4-0.1,0.7-0.2,0.7c-0.1,0-0.2,0.2-0.2,0.4c0,0.2-0.1,0.6-0.3,0.9c-0.1,0.3-0.2,0.7-0.2,1
		c0,0.3-0.1,0.5-0.2,0.5s-0.2,0.3-0.2,0.7c0,0.4-0.1,0.7-0.2,0.7c-0.1,0-0.2,0.3-0.3,0.7c-0.1,0.4-0.2,0.7-0.3,0.8
		c-0.1,0-0.1,0.3-0.1,0.7s-0.1,0.6-0.2,0.7c-0.1,0.1-0.2,0.4-0.2,0.7c0,0.3-0.1,0.7-0.3,0.8c-0.1,0.1-0.3,0.5-0.3,0.7
		c0,0.3-0.1,0.5-0.2,0.6c-0.1,0.1-0.2,0.4-0.2,0.7s-0.1,0.6-0.2,0.7c-0.1,0.1-0.2,0.4-0.2,0.7c0,0.3-0.1,0.6-0.2,0.6
		c-0.1,0-0.2,0.3-0.3,0.8c-0.1,0.4-0.2,0.8-0.3,0.8c-0.1,0.1-0.1,0.3-0.1,0.7c0,0.3-0.1,0.6-0.2,0.6s-0.2,0.3-0.2,0.6
		c0,0.3-0.1,0.8-0.3,0.9c-0.1,0.2-0.2,0.5-0.2,0.7c0,0.2-0.1,0.4-0.2,0.5c-0.1,0.1-0.2,0.4-0.2,0.7s-0.1,0.6-0.2,0.7
		c-0.1,0.1-0.2,0.4-0.2,0.7c0,0.3-0.1,0.6-0.2,0.6c-0.1,0-0.2,0.3-0.3,0.6c-0.1,0.3-0.2,0.8-0.3,0.9s-0.2,0.5-0.2,0.8
		c0,0.3-0.1,0.5-0.2,0.5c-0.1,0-0.2,0.3-0.2,0.6c0,0.4-0.1,0.7-0.3,0.7c-0.2,0.1-0.3,0.3-0.3,0.7c0,0.3-0.1,0.6-0.2,0.7
		c-0.1,0.1-0.2,0.4-0.2,0.8s-0.1,0.7-0.2,0.7s-0.2,0.3-0.2,0.6c0,0.3-0.1,0.7-0.3,0.8c-0.1,0.1-0.3,0.5-0.3,0.8
		c0,0.3-0.1,0.6-0.2,0.7c-0.1,0.1-0.2,0.4-0.2,0.7c0,0.3-0.1,0.6-0.2,0.6c-0.1,0-0.2,0.2-0.2,0.3c0,0.2-0.1,0.6-0.2,0.9
		c-0.2,0.5-0.3,0.8-0.5,2.3c-0.1,0.3-0.1,0.6-0.2,0.7c-0.1,0.1-0.5,1.4-0.6,2.1c0,0.3-0.2,0.6-0.2,0.6c-0.1,0-0.1,0.3-0.1,0.7
		c0,0.3-0.1,0.6-0.1,0.6c-0.1,0-0.2,0.3-0.3,0.7c-0.1,0.4-0.2,0.8-0.3,0.8c-0.1,0.1-0.2,0.3-0.2,0.6s-0.1,0.5-0.2,0.6
		c-0.1,0.1-0.2,0.4-0.2,0.7c0,0.4-0.1,0.7-0.2,0.7c-0.1,0-0.2,0.3-0.2,0.6c0,0.3-0.1,0.6-0.3,0.8c-0.1,0.2-0.2,0.5-0.2,0.8
		s-0.1,0.5-0.2,0.6s-0.2,0.4-0.2,0.7c0,0.3-0.1,0.6-0.2,0.6s-0.2,0.3-0.3,0.8s-0.2,0.8-0.3,0.8c-0.1,0-0.1,0.3-0.1,0.7
		s-0.1,0.6-0.2,0.7c-0.1,0.1-0.2,0.4-0.2,0.7s-0.1,0.6-0.2,0.6c-0.2,0.1-0.4,0.8-0.6,2.1c0,0.3-0.2,0.6-0.2,0.6
		c-0.1,0-0.1,0.3-0.1,0.7c0,0.3-0.1,0.6-0.2,0.6c-0.1,0-0.2,0.3-0.3,0.6c-0.1,0.3-0.2,0.8-0.3,0.9c-0.1,0.2-0.2,0.5-0.2,0.7
		s-0.1,0.5-0.2,0.5c-0.1,0.1-0.2,0.4-0.2,0.7c0,0.4-0.1,0.7-0.3,0.8c-0.1,0.1-0.3,0.4-0.3,0.7c0,0.3-0.1,0.5-0.2,0.6
		c-0.1,0.1-0.2,0.4-0.2,0.8s-0.1,0.7-0.2,0.7c-0.1,0-0.2,0.2-0.2,0.5c0,0.3-0.1,0.7-0.3,0.9c-0.1,0.2-0.2,0.5-0.2,0.8
		c0,0.3-0.1,0.5-0.2,0.6c-0.1,0.1-0.2,0.4-0.2,0.7s-0.1,0.6-0.2,0.7c-0.1,0.1-0.2,0.3-0.2,0.6c0,0.3-0.1,0.6-0.3,0.7
		c-0.1,0.1-0.3,0.5-0.3,0.8c0,0.3-0.1,0.6-0.2,0.7c-0.1,0.1-0.2,0.4-0.2,0.7s-0.1,0.6-0.2,0.7s-0.2,0.3-0.2,0.6
		c0,0.3-0.1,0.6-0.3,0.8c-0.1,0.1-0.3,0.5-0.3,0.7s-0.1,0.5-0.2,0.6c-0.1,0.1-0.2,0.3-0.2,0.6c0,0.3-0.1,0.6-0.1,0.8
		c-0.3,0.5-0.7,2-0.7,2.4c0,0.2-0.1,0.4-0.2,0.4s-0.2,0.3-0.2,0.6c0,0.3-0.1,0.8-0.3,1.1c-0.1,0.3-0.2,0.6-0.2,0.8
		c0,0.1,0,0.3-0.2,0.4c-0.1,0.1-0.2,0.4-0.2,0.7c0,0.3-0.1,0.5-0.2,0.6c-0.1,0.1-0.2,0.4-0.2,0.7c0,0.3-0.1,0.7-0.2,0.8
		c-0.1,0.1-0.2,0.4-0.1,0.5c0.1,0.1,0,0.4-0.2,0.7c-0.1,0.2-0.3,0.6-0.3,0.9s-0.1,0.5-0.2,0.6c-0.1,0.1-0.2,0.4-0.2,0.7
		c0,0.3-0.1,0.6-0.2,0.6c-0.1,0-0.2,0.2-0.2,0.5c0,0.3-0.1,0.7-0.3,0.9s-0.2,0.7-0.2,0.9c0,0.2-0.1,0.4-0.2,0.5s-0.2,0.4-0.2,0.7
		s-0.1,0.8-0.2,1c-0.3,0.6-0.6,1.6-0.6,2c0,0.2-0.1,0.4-0.2,0.5c-0.1,0.1-0.2,0.4-0.2,0.7c0,0.3-0.1,0.6-0.2,0.6
		c-0.1,0-0.2,0.3-0.3,0.6c-0.1,0.3-0.2,0.8-0.3,0.9c-0.1,0.2-0.2,0.5-0.2,0.8c0,0.3-0.1,0.5-0.2,0.6c-0.1,0.1-0.2,0.4-0.2,0.7
		s-0.1,0.6-0.2,0.6c-0.1,0-0.2,0.3-0.3,0.6c-0.1,0.3-0.2,0.7-0.2,0.9c-0.1,0.2-0.2,0.5-0.2,0.8s-0.1,0.5-0.2,0.5s-0.2,0.2-0.2,0.5
		c0,0.3-0.1,0.7-0.3,0.9c-0.1,0.2-0.2,0.5-0.2,0.8c0,0.3-0.1,0.5-0.2,0.5c-0.1,0-0.2,0.3-0.2,0.6c0,0.3-0.1,0.6-0.2,0.7
		c-0.1,0.1-0.2,0.4-0.2,0.7c0,0.3-0.1,0.7-0.1,0.8c-0.2,0.2-0.7,1.8-0.7,2.3c0,0.2-0.1,0.4-0.2,0.4c-0.1,0-0.2,0.3-0.2,0.6
		c0,0.3-0.1,0.7-0.3,0.8c-0.1,0.1-0.3,0.5-0.3,0.8s-0.1,0.6-0.2,0.7c-0.1,0.1-0.2,0.4-0.2,0.7s-0.1,0.6-0.2,0.7
		c-0.1,0.1-0.2,0.4-0.2,0.7s-0.1,0.6-0.2,0.6c-0.2,0.1-0.4,0.9-0.6,2.1c-0.1,0.3-0.2,0.6-0.2,0.7s-0.2,0.3-0.2,0.7
		c-0.1,0.3-0.2,0.6-0.3,0.7c-0.1,0.1-0.2,0.4-0.2,0.7c0,0.3-0.1,0.6-0.2,0.6s-0.2,0.3-0.2,0.7c0,0.4-0.1,0.7-0.2,0.7
		c-0.1,0-0.1,0.2,0,0.4l0.2,0.4h11.2c12.5,0,11.7,0.1,11.7-1.1c0-0.3,0.1-0.6,0.2-0.6c0.1-0.1,0.2-0.4,0.2-0.7s0.1-0.6,0.2-0.6
		c0.1,0,0.2-0.3,0.2-0.6c0-0.3,0.1-0.7,0.2-0.9c0.1-0.2,0.2-0.6,0.2-0.8c0-0.2,0.1-0.5,0.2-0.5c0.1-0.1,0.2-0.4,0.2-0.7
		s0.1-0.6,0.2-0.6c0.1,0,0.2-0.3,0.2-0.7c0-0.4,0.2-0.7,0.3-0.8c0.1-0.1,0.2-0.4,0.2-0.6c0-0.3,0.1-0.5,0.2-0.6
		c0.1-0.1,0.2-0.4,0.2-0.7c0-0.3,0.1-0.7,0.3-0.8c0.1-0.1,0.3-0.5,0.3-0.7s0.1-0.5,0.2-0.6c0.1-0.1,0.2-0.4,0.2-0.8s0.1-0.7,0.2-0.7
		s0.2-0.2,0.2-0.5c0-0.3,0.1-0.7,0.3-0.9c0.1-0.2,0.2-0.5,0.2-0.8c0-0.3,0.1-0.5,0.2-0.6c0.1-0.1,0.2-0.4,0.2-0.7s0.1-0.6,0.2-0.7
		c0.1-0.1,0.2-0.3,0.2-0.6c0-0.3,0.1-0.7,0.3-0.9c0.1-0.2,0.2-0.5,0.2-0.7c0-0.2,0.1-0.4,0.2-0.5c0.1-0.1,0.2-0.4,0.2-0.7
		s0.1-0.6,0.2-0.7c0.1-0.1,0.2-0.4,0.2-0.7c0-0.3,0.1-0.6,0.2-0.6c0.1,0,0.2-0.3,0.3-0.7c0.1-0.4,0.2-0.7,0.3-0.8
		c0.1-0.1,0.2-0.3,0.2-0.7s0.1-0.6,0.2-0.7s0.2-0.3,0.2-0.6c0-0.3,0.1-0.7,0.3-0.9c0.1-0.2,0.2-0.5,0.2-0.8c0-0.3,0.1-0.5,0.2-0.5
		c0.1,0,0.2-0.3,0.2-0.6c0-0.3,0.1-0.6,0.2-0.7c0.1-0.1,0.2-0.4,0.2-0.7c0-0.4,0.1-0.7,0.3-0.8c0.1-0.1,0.3-0.4,0.3-0.7
		c0-0.3,0.1-0.5,0.2-0.6c0.1-0.1,0.2-0.4,0.2-0.7c0-0.4,0.1-0.7,0.2-0.7c0.1,0,0.2-0.3,0.2-0.6c0-0.3,0.1-0.6,0.2-0.7
		c0.1-0.1,0.2-0.4,0.2-0.7c0-0.3,0.1-0.6,0.2-0.6c0.1-0.1,0.2-0.4,0.2-0.7s0.1-0.6,0.2-0.7c0.1-0.1,0.2-0.4,0.3-0.8
		c0.1-0.4,0.2-0.7,0.3-0.8c0.1-0.1,0.2-0.3,0.2-0.6c0-0.3,0.1-0.5,0.2-0.6c0.1-0.1,0.2-0.4,0.2-0.8s0.1-0.7,0.2-0.8
		c0.1-0.1,0.2-0.2,0.2-0.4c0-0.2,0.1-0.5,0.2-0.8c0.1-0.3,0.3-0.7,0.3-0.9c0-0.2,0.1-0.5,0.2-0.6c0.1-0.1,0.2-0.4,0.2-0.7
		s0.1-0.6,0.2-0.7c0.1-0.1,0.2-0.3,0.2-0.5c0-0.2,0.1-0.6,0.3-0.8c0.1-0.3,0.2-0.7,0.2-0.9c0-0.2,0.1-0.4,0.2-0.5
		c0.1-0.1,0.2-0.4,0.2-0.8c0-0.4,0.1-0.7,0.2-0.7s0.2-0.2,0.2-0.4c0-0.2,0.1-0.6,0.3-0.9c0.1-0.3,0.2-0.7,0.2-0.9
		c0-0.3,0.1-0.5,0.2-0.6c0.1-0.1,0.2-0.3,0.2-0.6c0-0.3,0.1-0.7,0.2-0.9c0.1-0.3,0.2-0.6,0.3-0.8c0-0.2,0.1-0.4,0.2-0.5
		c0.1-0.1,0.2-0.4,0.2-0.7s0.1-0.6,0.2-0.7s0.2-0.3,0.2-0.6c0-0.3,0.1-0.7,0.3-0.9c0.1-0.2,0.2-0.5,0.2-0.7c0-0.2,0.1-0.4,0.2-0.5
		c0.1-0.1,0.2-0.4,0.2-0.8c0-0.4,0.1-0.7,0.2-0.7c0.1,0,0.2-0.2,0.2-0.5c0-0.3,0.1-0.7,0.3-0.9c0.1-0.2,0.2-0.5,0.2-0.8
		c0-0.3,0.1-0.5,0.2-0.6c0.1-0.1,0.2-0.4,0.2-0.7s0.1-0.6,0.2-0.7c0.1-0.1,0.2-0.4,0.2-0.7s0.1-0.6,0.2-0.7c0.2-0.2,0.3-0.5,0.5-2.1
		c0.1-0.3,0.2-0.6,0.2-0.6c0.1,0,0.2-0.2,0.2-0.5c0-0.3,0.1-0.7,0.3-0.9c0.1-0.2,0.2-0.5,0.2-0.8c0-0.3,0.1-0.5,0.1-0.5
		c0.1-0.1,0.2-0.3,0.5-1.9c0.1-0.3,0.2-0.7,0.3-0.9c0.2-0.2,0.3-0.6,0.5-2c0.1-0.3,0.2-0.6,0.2-0.7c0.1,0,0.2-0.3,0.2-0.5
		c0-0.2,0.2-0.6,0.3-0.8c0.1-0.2,0.2-0.6,0.2-0.8c0-0.3,0.1-0.5,0.2-0.6c0.1-0.1,0.2-0.3,0.2-0.6c0-0.3,0.1-0.6,0.2-0.7
		c0.1-0.1,0.2-0.4,0.2-0.7s0.1-0.7,0.2-0.9c0.3-0.8,0.6-1.6,0.6-2c0-0.2,0.1-0.5,0.2-0.6c0.1-0.1,0.2-0.4,0.1-0.5
		c-0.1-0.1,0-0.4,0.2-0.7c0.1-0.2,0.3-0.6,0.3-0.9c0-0.3,0.1-0.5,0.2-0.6c0.1-0.1,0.2-0.3,0.2-0.6c0-0.3,0.1-0.6,0.2-0.7
		c0.1-0.1,0.2-0.4,0.2-0.7c0-0.3,0.1-0.6,0.3-0.7c0.1-0.1,0.2-0.4,0.2-0.6c0-0.3,0.1-0.5,0.2-0.6c0.1-0.1,0.2-0.4,0.2-0.7
		c0-0.3,0.1-0.7,0.1-0.9c0.3-0.5,0.6-1.5,0.6-2c0-0.3,0.1-0.6,0.2-0.6c0.1-0.1,0.1-0.3,0.1-0.7c0-0.3,0.1-0.6,0.2-0.6
		c0.1,0,0.2-0.3,0.3-0.6s0.2-0.8,0.3-0.9c0.1-0.2,0.2-0.5,0.2-0.8s0.1-0.5,0.2-0.6c0.1-0.1,0.2-0.4,0.2-0.7c0-0.3,0.1-0.6,0.2-0.7
		s0.3-0.5,0.3-0.8c0.3-1.5,0.3-1.7,0.4-1.8c0.1,0,0.1-0.3,0.1-0.7c0-0.3,0.1-0.6,0.2-0.6c0.1,0,0.2-0.3,0.3-0.6
		c0.1-0.3,0.2-0.8,0.3-0.9s0.2-0.5,0.2-0.8c0-0.3,0.1-0.5,0.2-0.5c0.1,0,0.2-0.3,0.2-0.7c0-0.4,0.1-0.7,0.2-0.7
		c0.1,0,0.2-0.3,0.3-0.7c0.1-0.4,0.2-0.7,0.3-0.8s0.2-0.4,0.2-0.8s0.1-0.7,0.2-0.7s0.2-0.3,0.2-0.6c0-0.3,0.1-0.7,0.3-0.8
		c0.1-0.1,0.3-0.5,0.3-0.8c0-0.3,0.1-0.6,0.2-0.7c0.1-0.1,0.2-0.4,0.2-0.7s0.1-0.6,0.2-0.7c0.1-0.1,0.2-0.3,0.2-0.6s0.1-0.7,0.2-0.9
		c0.3-0.7,0.6-1.6,0.6-2.1c0-0.2,0.1-0.5,0.2-0.5c0.1,0,0.2-0.3,0.2-0.6c0-0.3,0.1-0.7,0.2-0.9c0.1-0.2,0.2-0.5,0.2-0.7
		c0-0.2,0.1-0.5,0.2-0.5c0.1-0.1,0.2-0.4,0.2-0.7c0-0.3,0.1-0.6,0.1-0.6c0.1,0,0.2-0.3,0.3-0.7c0.1-0.4,0.2-0.8,0.3-0.8
		c0.1-0.1,0.2-0.3,0.2-0.6s0.1-0.5,0.2-0.6c0.1-0.1,0.2-0.4,0.2-0.7c0-0.4,0.1-0.7,0.2-0.7c0.1,0,0.2-0.3,0.2-0.6
		c0-0.3,0.1-0.6,0.3-0.7c0.1-0.1,0.2-0.4,0.2-0.7s0.1-0.6,0.2-0.7s0.2-0.4,0.2-0.7c0-0.3,0.1-0.6,0.2-0.6c0.1,0,0.2-0.4,0.2-0.9
		l0.1-0.9h-11.5h-11.5L193.6-17.4 M230.2-17.9c-0.1,0.1-0.2,0.4-0.3,0.8s-0.2,0.8-0.3,0.8c-0.1,0.1-0.2,0.3-0.2,0.6
		s-0.1,0.5-0.2,0.6c-0.1,0.1-0.2,0.4-0.2,0.7s-0.1,0.7-0.2,0.8c-0.1,0.1-0.2,0.3-0.2,0.4c0,0.1,0,0.5-0.2,0.7
		c-0.1,0.3-0.3,0.7-0.3,0.9c0,0.2-0.1,0.5-0.2,0.5c-0.1,0.1-0.2,0.4-0.2,0.7c0,0.3-0.1,0.6-0.2,0.6c-0.1,0-0.2,0.2-0.2,0.6
		c0,0.3-0.1,0.7-0.2,0.9c-0.1,0.2-0.2,0.6-0.3,0.9c0,0.3-0.1,0.6-0.2,0.6c-0.1,0.1-0.2,0.4-0.2,0.7c0,0.3-0.1,0.6-0.2,0.6
		c-0.2,0.1-0.4,0.8-0.6,2.1c0,0.3-0.2,0.6-0.2,0.6c-0.1,0.1-0.1,0.4-0.1,0.7c0,0.3-0.1,0.6-0.2,0.6c-0.1,0-0.2,0.3-0.3,0.6
		c-0.1,0.3-0.2,0.8-0.3,0.9c-0.1,0.2-0.2,0.5-0.2,0.7c0,0.2-0.1,0.5-0.2,0.5c-0.1,0.1-0.2,0.4-0.2,0.8c0,0.4-0.1,0.7-0.2,0.7
		c-0.1,0-0.2,0.3-0.3,0.7c-0.1,0.4-0.2,0.7-0.3,0.8s-0.2,0.4-0.2,0.8s-0.1,0.7-0.2,0.7s-0.2,0.2-0.2,0.5c0,0.3-0.1,0.7-0.2,1
		c-0.1,0.3-0.2,0.6-0.3,0.8c0,0.2-0.1,0.4-0.2,0.5c-0.1,0.1-0.2,0.4-0.2,0.7s-0.1,0.6-0.2,0.7c-0.1,0.1-0.2,0.4-0.2,0.7
		c0,0.3-0.1,0.6-0.2,0.6c-0.2,0-0.5,1.1-0.6,2.2c0,0.3-0.2,0.6-0.2,0.6s-0.2,0.2-0.2,0.5c0,0.3-0.1,0.7-0.3,0.9
		c-0.1,0.2-0.2,0.5-0.2,0.8s-0.1,0.5-0.2,0.6c-0.1,0.1-0.2,0.4-0.2,0.7s-0.1,0.6-0.2,0.7c-0.1,0.1-0.2,0.4-0.2,0.7
		c0,0.3-0.1,0.6-0.2,0.7s-0.3,0.5-0.3,0.8c-0.1,0.3-0.2,0.9-0.2,1.2c-0.1,0.3-0.2,0.6-0.2,0.7c-0.1,0-0.2,0.3-0.2,0.6
		c0,0.3-0.1,0.6-0.3,0.7c-0.1,0.1-0.2,0.4-0.2,0.7c0,0.3-0.1,0.6-0.2,0.7s-0.2,0.4-0.2,0.7c0,0.3-0.1,0.6-0.2,0.6
		c-0.1,0-0.2,0.2-0.2,0.4c0,0.2-0.1,0.7-0.2,1c-0.2,0.5-0.4,1.1-0.5,2.1c-0.1,0.3-0.2,0.6-0.2,0.7c-0.1,0-0.2,0.3-0.2,0.6
		c-0.1,0.3-0.2,0.7-0.3,0.9c-0.1,0.2-0.2,0.5-0.2,0.7s-0.1,0.5-0.2,0.5c-0.1,0.1-0.2,0.3-0.2,0.6c0,0.3-0.1,0.6-0.2,0.7
		c-0.1,0.1-0.2,0.4-0.3,0.7s-0.2,0.7-0.3,0.7c-0.1,0.1-0.2,0.4-0.2,0.6c0,0.3-0.1,0.5-0.2,0.6c-0.1,0.1-0.2,0.4-0.2,0.7
		c0,0.4-0.1,0.7-0.3,0.8c-0.1,0.1-0.3,0.4-0.3,0.7c0,0.3-0.1,0.5-0.2,0.6c-0.1,0.1-0.2,0.4-0.2,0.8c0,0.4-0.1,0.7-0.2,0.7
		c-0.1,0-0.2,0.2-0.2,0.5c0,0.3-0.1,0.7-0.3,0.9c-0.1,0.2-0.2,0.5-0.2,0.8c0,0.3-0.1,0.5-0.2,0.6c-0.1,0.1-0.2,0.4-0.2,0.7
		s-0.1,0.6-0.2,0.7c-0.1,0.1-0.2,0.3-0.2,0.6s-0.1,0.7-0.2,0.9c-0.3,0.7-0.6,1.6-0.6,2.1c0,0.2-0.1,0.4-0.2,0.4s-0.2,0.2-0.2,0.5
		c0,0.3-0.1,0.7-0.3,0.9c-0.1,0.2-0.2,0.5-0.2,0.7c0,0.2-0.1,0.4-0.2,0.5c-0.1,0.1-0.2,0.4-0.2,0.7s-0.1,0.6-0.2,0.7
		c-0.1,0.1-0.2,0.3-0.2,0.6c0,0.3-0.1,0.7-0.2,0.9c-0.1,0.3-0.3,0.6-0.3,0.9c0,0.2-0.1,0.4-0.1,0.4c-0.1,0-0.2,0.3-0.3,0.7
		c-0.1,0.4-0.1,1-0.2,1.3c-0.1,0.4-0.2,0.7-0.3,0.9c-0.1,0.1-0.2,0.4-0.2,0.7c0,0.3-0.1,0.5-0.2,0.6c-0.1,0.1-0.2,0.4-0.2,0.8
		s-0.1,0.7-0.2,0.8c-0.1,0.1-0.2,0.3-0.2,0.6c0,0.3-0.1,0.6-0.3,0.7c-0.1,0.1-0.3,0.5-0.3,0.8s-0.1,0.6-0.2,0.7
		c-0.1,0.1-0.2,0.3-0.2,0.6c0,0.3-0.1,0.5-0.2,0.6c-0.1,0.1-0.2,0.3-0.2,0.5s-0.1,0.7-0.2,0.9c-0.3,0.6-0.4,1.2-0.5,2.2
		c0,0.3-0.2,0.7-0.2,0.7c-0.1,0.1-0.1,0.3-0.1,0.5s-0.1,0.4-0.2,0.5c-0.1,0.1-0.2,0.4-0.3,0.8c-0.1,0.4-0.2,0.8-0.3,0.8
		c-0.1,0-0.1,0.3-0.1,0.6c0,0.3-0.1,0.6-0.2,0.7c-0.1,0.1-0.2,0.4-0.3,0.7c-0.1,0.3-0.2,0.7-0.3,0.9c-0.1,0.2-0.2,0.5-0.2,0.7
		c0,0.2-0.1,0.5-0.2,0.5c-0.1,0.1-0.2,0.4-0.2,0.7c0,0.3-0.1,0.6-0.1,0.6c-0.1,0-0.5,1.3-0.6,2.2c-0.1,0.3-0.2,0.6-0.2,0.6
		c-0.1,0-0.1,0.2-0.1,0.6c0,0.3-0.1,0.6-0.2,0.7c-0.2,0.2-0.5,1.3-0.6,2.2c0,0.3-0.2,0.6-0.2,0.6c-0.1,0.1-0.1,0.3-0.1,0.6
		s-0.1,0.7-0.2,0.9c-0.3,0.7-0.6,1.6-0.6,2.1c0,0.2-0.1,0.4-0.2,0.4c-0.1,0-0.2,0.2-0.2,0.5c0,0.3-0.1,0.7-0.3,0.9
		c-0.1,0.2-0.2,0.5-0.2,0.8c0,0.3-0.1,0.5-0.2,0.6c-0.1,0.1-0.2,0.4-0.2,0.7s-0.1,0.6-0.2,0.7c-0.1,0.1-0.2,0.4-0.2,0.7
		s-0.1,0.6-0.2,0.7c-0.2,0.2-0.3,0.5-0.5,2.1c-0.1,0.3-0.2,0.6-0.2,0.6c-0.1,0-0.1,0.2-0.1,0.5c0,0.3-0.1,0.7-0.2,1
		c-0.1,0.3-0.3,0.6-0.3,0.9c0,0.2-0.1,0.4-0.1,0.4c-0.1,0-0.2,0.3-0.2,0.6c-0.2,1.6-0.3,2-0.5,2.2c-0.2,0.2-0.3,0.8-0.5,2
		c0,0.3-0.2,0.6-0.2,0.6c-0.1,0-0.1,0.3-0.1,0.7c0,0.4-0.1,0.6-0.2,0.6c-0.1-0.1-0.2,0.2-0.3,0.5c-0.1,0.3-0.2,0.8-0.3,0.9
		c-0.1,0.2-0.2,0.5-0.2,0.8c0,0.3-0.1,0.5-0.2,0.6c-0.1,0.1-0.2,0.4-0.2,0.7c0,0.3-0.1,0.7-0.2,0.9c-0.3,0.8-0.6,1.6-0.6,2.1
		c0,0.2-0.1,0.4-0.2,0.4c-0.1,0-0.2,0.2-0.2,0.5c0,0.3-0.1,0.6-0.2,0.8c-0.1,0.2-0.2,0.6-0.3,0.9c0,0.3-0.1,0.6-0.2,0.6
		c-0.1,0-0.2,0.4-0.2,0.8v0.8H203c12,0,11.7,0,11.7-0.8c0-0.2,0.1-0.4,0.2-0.5c0.1-0.1,0.2-0.4,0.2-0.8c0-0.4,0.1-0.7,0.2-0.7
		c0.1,0,0.2-0.2,0.2-0.4c0-0.2,0.1-0.6,0.3-0.9c0.1-0.3,0.2-0.7,0.2-0.9s0.1-0.5,0.2-0.6c0.1-0.1,0.2-0.4,0.2-0.7
		c0-0.3,0.1-0.6,0.1-0.6c0.1,0,0.2-0.3,0.3-0.7c0.1-0.4,0.2-0.8,0.3-0.8c0.1-0.1,0.2-0.3,0.2-0.6s0.1-0.5,0.2-0.6
		c0.1-0.1,0.2-0.4,0.2-0.7c0-0.4,0.1-0.7,0.2-0.7c0.1,0,0.2-0.3,0.2-0.6c0-0.3,0.1-0.6,0.3-0.8c0.1-0.2,0.2-0.5,0.2-0.8
		s0.1-0.5,0.2-0.6c0.1-0.1,0.2-0.4,0.2-0.7c0-0.3,0.1-0.6,0.2-0.6c0.1,0,0.2-0.3,0.3-0.8c0.1-0.4,0.2-0.8,0.3-0.8
		c0.1,0,0.1-0.3,0.1-0.7s0.1-0.6,0.2-0.7c0.1-0.1,0.2-0.4,0.2-0.7c0-0.3,0.1-0.6,0.2-0.6c0.1,0,0.3-0.4,0.3-0.7
		c0.2-1.5,0.3-1.9,0.5-2c0.1,0,0.1-0.3,0.1-0.7c0-0.3,0.1-0.6,0.2-0.6c0.1,0,0.2-0.3,0.3-0.6c0.1-0.3,0.2-0.8,0.3-0.9
		c0.1-0.2,0.2-0.5,0.2-0.8c0-0.3,0.1-0.5,0.2-0.5c0.1,0,0.2-0.3,0.2-0.6c0-0.3,0.1-0.7,0.3-0.8c0.1-0.1,0.3-0.5,0.3-0.7
		s0.1-0.5,0.2-0.6c0.1-0.1,0.2-0.4,0.2-0.8s0.1-0.7,0.2-0.7s0.2-0.3,0.2-0.6c0-0.3,0.1-0.6,0.3-0.7c0.2-0.1,0.3-0.3,0.3-0.7
		c0-0.3,0.1-0.6,0.2-0.7c0.1-0.1,0.2-0.4,0.2-0.8s0.1-0.7,0.2-0.7c0.1,0,0.2-0.2,0.2-0.5c0-0.3,0.1-0.6,0.3-0.8
		c0.1-0.1,0.3-0.5,0.3-0.8s0.1-0.6,0.2-0.7c0.1-0.1,0.2-0.3,0.2-0.6c0-0.3,0.1-0.6,0.1-0.8c0.3-0.5,0.6-1.5,0.6-2
		c0-0.3,0.1-0.6,0.2-0.6c0.1,0,0.1-0.3,0.1-0.6c0-0.3,0.1-0.6,0.1-0.8c0.3-0.5,0.7-2,0.7-2.3c0-0.2,0.1-0.4,0.2-0.4
		c0.1,0,0.2-0.3,0.2-0.6c0-0.3,0.1-0.8,0.3-1.1c0.1-0.3,0.2-0.6,0.2-0.8c0-0.1,0-0.3,0.2-0.4c0.1-0.1,0.2-0.4,0.2-0.7
		c0-0.3,0.1-0.5,0.2-0.6c0.1-0.1,0.2-0.4,0.2-0.7c0-0.4,0.1-0.7,0.2-0.7c0.1,0,0.2-0.3,0.2-0.6c0-0.3,0.1-0.7,0.2-0.9
		c0.1-0.2,0.2-0.5,0.2-0.7c0-0.2,0.1-0.5,0.2-0.5c0.1-0.1,0.2-0.4,0.2-0.7s0.1-0.6,0.2-0.7c0.1-0.1,0.2-0.4,0.3-0.8
		c0.1-0.4,0.2-0.7,0.3-0.8c0.1-0.1,0.2-0.3,0.2-0.6c0-0.3,0.1-0.5,0.2-0.6c0.1-0.1,0.2-0.4,0.2-0.8s0.1-0.7,0.2-0.7
		c0.1,0,0.4-1,0.6-2.1c0-0.3,0.2-0.6,0.2-0.6c0.1,0,0.1-0.3,0.1-0.7c0-0.3,0.1-0.6,0.2-0.6c0.1,0,0.2-0.3,0.3-0.6
		c0.1-0.3,0.2-0.8,0.2-1c0.2-0.4,0.3-1,0.4-1.9c0.1-0.3,0.2-0.6,0.3-0.7c0.2-0.1,0.4-0.9,0.6-2.1c0-0.3,0.2-0.6,0.2-0.6
		c0.1,0,0.2-0.3,0.2-0.6c0-0.3,0.1-0.7,0.3-0.9c0.1-0.2,0.2-0.5,0.2-0.8c0-0.3,0.1-0.5,0.2-0.5c0.1,0,0.2-0.3,0.2-0.7
		s0.1-0.7,0.2-0.8s0.2-0.4,0.2-0.7s0.1-0.6,0.3-0.8c0.1-0.1,0.3-0.4,0.3-0.7c0-0.3,0.1-0.5,0.2-0.6c0.1-0.1,0.2-0.4,0.2-0.7
		s0.1-0.6,0.2-0.7c0.1-0.1,0.2-0.4,0.2-0.7c0-0.3,0.1-0.6,0.3-0.8c0.1-0.1,0.3-0.5,0.3-0.8s0.1-0.6,0.2-0.6s0.2-0.2,0.2-0.4
		s0.2-1,0.4-1.8c0.7-2.2,0.7-2.4,0.7-2.8c0-0.2,0.1-0.4,0.1-0.4c0.1,0,0.5-1.2,0.6-2.1c0.1-0.3,0.2-0.6,0.2-0.6
		c0.1-0.1,0.1-0.3,0.1-0.7c0-0.3,0.1-0.6,0.2-0.6c0.1,0,0.2-0.4,0.3-0.7s0.1-0.7,0.2-0.8c0.1-0.1,0.2-0.4,0.2-0.6
		c0-0.3,0.1-0.5,0.2-0.6s0.2-0.4,0.2-0.7s0.1-0.7,0.2-0.7c0.1,0,0.2-0.2,0.2-0.5c0.2-1,0.5-1.9,0.6-2.2c0.1-0.2,0.1-0.5,0.1-0.8
		s0.1-0.5,0.2-0.6c0.1-0.1,0.2-0.4,0.2-0.7c0-0.3,0.1-0.6,0.3-0.7c0.1-0.1,0.2-0.4,0.2-0.7c0-0.3,0.1-0.6,0.2-0.7
		c0.1-0.1,0.2-0.4,0.2-0.7c0-0.3,0.1-0.6,0.2-0.6c0.2-0.1,0.5-1,0.6-2c0-0.3,0.1-0.6,0.2-0.6c0.1,0,0.1-0.3,0.1-0.7
		c0-0.4,0.1-0.7,0.1-0.7c0.1,0,0.5-1.1,0.6-2.1c0-0.3,0.2-0.6,0.2-0.6c0.1,0,0.1-0.4,0.1-0.7c0-0.4,0.1-0.7,0.2-0.7
		c0.1,0,0.4-1,0.6-2.1c0-0.3,0.2-0.6,0.2-0.6c0.1-0.1,0.1-0.3,0.1-0.7c0-0.3,0.1-0.6,0.2-0.6c0.1,0,0.2-0.4,0.3-0.8
		c0.1-0.4,0.2-0.7,0.2-0.7c0.1,0,0.1-0.3,0.1-0.6c0-0.3,0.1-0.6,0.2-0.7s0.2-0.4,0.2-0.7c0-0.4,0.1-0.7,0.3-0.8
		c0.1-0.1,0.3-0.4,0.3-0.7c0-0.3,0.1-0.5,0.2-0.6c0.1-0.1,0.2-0.4,0.2-0.7s0.1-0.6,0.2-0.7c0.1-0.1,0.2-0.3,0.2-0.6
		c0-0.3,0.1-0.6,0.3-0.8c0.1-0.1,0.3-0.5,0.3-0.8c0-0.3,0.1-0.6,0.2-0.7s0.2-0.4,0.2-0.7c0-0.3,0.1-0.6,0.2-0.6
		c0.1,0,0.2-0.2,0.2-0.5s0.1-0.6,0.2-0.9s0.2-0.6,0.2-0.9c0-0.2,0.1-0.5,0.2-0.6c0.1-0.1,0.2-0.4,0.2-0.8s0.1-0.7,0.2-0.7
		c0.1,0,0.2-0.3,0.3-0.7c0.1-0.4,0.2-0.7,0.3-0.8c0.1-0.1,0.2-0.3,0.2-0.7s0.1-0.6,0.2-0.7c0.1-0.1,0.2-0.4,0.2-0.7
		c0-0.3,0.1-0.6,0.2-0.6c0.1,0,0.2-0.3,0.2-0.7c0.1-0.3,0.1-0.7,0.2-0.9c0.1-0.2,0-0.4-0.1-0.4C252.7-18,230.5-18,230.2-17.9"/>
	<path id="path2" class="st1" d="M352.2,0.2v18.2h-7.6H337v9.8v9.8h7.6h7.6v24.9c0,16.5,0.1,24.9,0.2,24.9c0.1,0,0.2,0.6,0.2,1.5
		c0,1.2,0.1,1.5,0.3,1.6c0.2,0.1,0.3,0.4,0.3,1.1c0,0.5,0.1,1,0.2,1c0.1,0,0.2,0.3,0.2,0.8c0,0.4,0.1,0.8,0.2,0.8s0.2,0.3,0.2,0.8
		c0,0.5,0.1,0.8,0.3,0.9c0.1,0.1,0.3,0.3,0.3,0.6c0,0.3,0.1,0.5,0.2,0.6c0.1,0.1,0.2,0.3,0.2,0.6c0,0.3,0.1,0.5,0.2,0.6
		c0.1,0.1,0.2,0.2,0.2,0.4s0.1,0.3,0.3,0.3c0.2,0,0.3,0.2,0.3,0.4c0,0.2,0.1,0.4,0.2,0.4s0.2,0.2,0.2,0.4c0,0.5,0.5,1.4,0.9,1.8
		c0.2,0.1,0.3,0.4,0.3,0.6c0,0.2,0.1,0.4,0.3,0.4c0.1,0,0.3,0.1,0.3,0.3c0,0.2,0.1,0.3,0.2,0.3s0.2,0.1,0.2,0.3
		c0,0.1,0.1,0.3,0.2,0.3c0.1,0,0.2,0.2,0.2,0.3c0,0.2,0.1,0.3,0.3,0.3c0.1,0,0.3,0.1,0.3,0.2s0.1,0.3,0.3,0.5
		c0.2,0.1,0.3,0.4,0.3,0.5c0,0.1,0.3,0.5,0.6,0.8c0.3,0.3,0.6,0.6,0.6,0.7c0,0.1,0.1,0.2,0.2,0.2c0.2,0,1,0.8,1,1
		c0,0.1,0.1,0.1,0.2,0.1c0.1,0,0.4,0.3,0.7,0.6c0.3,0.3,0.6,0.6,0.7,0.6c0.1,0,0.5,0.3,0.8,0.6c0.3,0.3,0.7,0.6,0.8,0.6
		s0.3,0.1,0.3,0.2s0.1,0.2,0.3,0.2c0.1,0,0.3,0.1,0.3,0.2c0,0.1,0.3,0.3,0.6,0.4c0.3,0.2,0.6,0.3,0.6,0.4c0,0.1,0.1,0.1,0.3,0.1
		c0.2,0,0.4,0.1,0.4,0.3c0.1,0.1,0.2,0.3,0.4,0.3s0.3,0.1,0.3,0.2s0.2,0.2,0.4,0.2c0.2,0,0.4,0.1,0.4,0.2c0,0.1,0.2,0.2,0.3,0.2
		s0.5,0.1,0.6,0.3c0.1,0.1,0.4,0.3,0.7,0.3c0.2,0,0.4,0.1,0.4,0.2c0,0.1,0.1,0.2,0.3,0.2c0.2,0,0.3,0.1,0.3,0.2s0.3,0.2,0.6,0.2
		c0.3,0,0.6,0.1,0.7,0.3c0.1,0.1,0.3,0.3,0.6,0.3c0.3,0,0.5,0.1,0.5,0.2c0,0.1,0.4,0.2,0.8,0.2c0.5,0,0.8,0.1,0.8,0.2
		c0,0.1,0.3,0.2,0.8,0.2c0.6,0,0.8,0.1,0.8,0.3c0,0.2,0.2,0.3,1,0.3c0.6,0,1,0.1,1,0.2c0,0.1,0.6,0.2,1.3,0.2s1.3,0.1,1.3,0.2
		c0,0.1,1,0.2,2.8,0.2c2.3,0,2.8,0,2.8,0.3c0,0.4,17.7,0.4,17.9,0c0.1-0.1,0.1-4.5,0.1-9.8v-9.5h-6.2c-5.4,0-6.2,0-6.3-0.3
		c-0.1-0.2-0.5-0.3-2.2-0.3c-1.3,0-2.1-0.1-2.1-0.2c0-0.1-0.4-0.2-1-0.2s-1-0.1-1-0.2c0-0.1-0.3-0.2-0.7-0.2c-0.5,0-0.8-0.1-0.8-0.3
		c-0.1-0.1-0.3-0.3-0.6-0.3c-0.3,0-0.5-0.1-0.5-0.2c0-0.1-0.2-0.2-0.4-0.2s-0.4-0.1-0.4-0.2c0-0.1-0.2-0.2-0.4-0.2
		c-0.2,0-0.4-0.1-0.4-0.2c0-0.2-0.5-0.6-0.8-0.6c-0.3,0-3-2.8-3-3c0-0.3-0.4-0.8-0.6-0.8c-0.1,0-0.2-0.2-0.2-0.4
		c0-0.2-0.1-0.4-0.2-0.4c-0.1,0-0.2-0.2-0.2-0.5c0-0.3-0.1-0.5-0.2-0.6c-0.1-0.1-0.2-0.3-0.2-0.4c0-0.2-0.1-0.4-0.3-0.4
		c-0.2-0.1-0.3-0.3-0.3-0.8c0-0.4-0.1-0.7-0.2-0.7c-0.1,0-0.2-0.4-0.2-0.9s-0.1-1-0.2-1c-0.1-0.1-0.2-0.7-0.2-1.4
		c0-1.1,0-1.3-0.3-1.3c-0.2,0-0.3-2.6-0.3-22.2V37.8l15,0l15,0l0-9.3c0-5.1,0-9.5,0-9.7l-0.1-0.4h-15h-15V0.2V-18h-11.5h-11.5V0.2
		 M413.5,49.9l0,67.9h11.6h11.6l0-21.9l0-21.9h4c3.4,0,4,0,4,0.3c0,0.1,0.1,0.3,0.2,0.3s0.2,0.2,0.2,0.3s0.1,0.3,0.2,0.3
		c0.1,0,0.2,0.1,0.2,0.3c0,0.1,0.1,0.3,0.2,0.3c0.3,0,0.7,0.4,0.7,0.8c0,0.3,0.4,0.8,0.7,0.8c0.1,0,0.2,0.2,0.2,0.4s0.1,0.5,0.3,0.6
		c0.2,0.1,0.3,0.4,0.3,0.5s0.2,0.4,0.4,0.6c0.2,0.2,0.4,0.4,0.4,0.5c0,0.1,0.1,0.2,0.2,0.2c0.1,0,0.2,0.2,0.2,0.3
		c0,0.2,0.1,0.3,0.3,0.3c0.1,0,0.3,0.1,0.3,0.3c0,0.1,0.1,0.3,0.2,0.3c0.1,0,0.2,0.2,0.2,0.3c0,0.2,0.1,0.3,0.2,0.3s0.2,0.1,0.2,0.3
		s0.1,0.3,0.2,0.3c0.3,0,0.7,0.4,0.7,0.8s0.4,0.8,0.7,0.8c0.1,0,0.2,0.1,0.2,0.3s0.1,0.5,0.3,0.7c0.2,0.2,0.3,0.4,0.3,0.5
		c0,0.1,0.3,0.4,0.6,0.8c0.3,0.3,0.6,0.7,0.6,0.7c0,0.1,0.2,0.4,0.4,0.6c0.2,0.2,0.4,0.5,0.4,0.6c0,0.3,0.4,0.8,0.6,0.8
		c0.1,0,0.2,0.1,0.2,0.3s0.1,0.3,0.2,0.3s0.2,0.2,0.2,0.3c0,0.2,0.1,0.3,0.2,0.3c0.1,0,0.2,0.1,0.2,0.3c0,0.1,0.1,0.3,0.3,0.3
		c0.1,0,0.3,0.1,0.3,0.3c0,0.2,0.1,0.3,0.2,0.3c0.1,0,0.2,0.1,0.2,0.3c0,0.1,0.1,0.3,0.2,0.3c0.3,0,0.7,0.4,0.7,0.8
		c0,0.3,0.4,0.8,0.7,0.8c0.1,0,0.2,0.2,0.2,0.4s0.1,0.5,0.3,0.6c0.2,0.1,0.3,0.4,0.3,0.5s0.2,0.4,0.4,0.6c0.2,0.2,0.4,0.4,0.4,0.5
		c0,0.1,0.1,0.2,0.2,0.2c0.1,0,0.2,0.2,0.2,0.3c0,0.2,0.1,0.3,0.3,0.3c0.1,0,0.3,0.1,0.3,0.3c0,0.1,0.1,0.3,0.2,0.3s0.2,0.2,0.2,0.3
		c0,0.2,0.1,0.3,0.2,0.3c0.1,0,0.2,0.1,0.2,0.3s0.1,0.3,0.2,0.3c0.3,0,0.7,0.4,0.7,0.8s0.4,0.8,0.7,0.8c0.1,0,0.2,0.1,0.2,0.3
		s0.1,0.5,0.3,0.7c0.2,0.2,0.3,0.5,0.3,0.6c0,0.1,0.3,0.4,0.6,0.7c0.3,0.3,0.6,0.6,0.6,0.8c0,0.1,0.2,0.4,0.4,0.6
		c0.2,0.2,0.4,0.4,0.4,0.6c0,0.3,0.4,0.8,0.6,0.8c0.1,0,0.2,0.1,0.2,0.3c0,0.1,0.1,0.3,0.2,0.3c0.1,0,0.2,0.1,0.2,0.3
		c0,0.2,0.1,0.3,0.2,0.3c0.1,0,0.2,0.1,0.2,0.3c0,0.1,0.1,0.3,0.3,0.3c0.1,0,0.3,0.1,0.3,0.3c0,0.2,0.1,0.3,0.2,0.3s0.2,0.1,0.2,0.2
		c0,0.1,0.1,0.3,0.2,0.4c0.5,0.5,0.6,0.7,0.6,0.8c0,0.2,0.5,0.6,0.7,0.6c0.1,0,0.2,0.2,0.2,0.4s0.1,0.5,0.3,0.6
		c0.2,0.1,0.3,0.4,0.3,0.5s0.2,0.4,0.4,0.6s0.4,0.4,0.4,0.5c0,0.1,0.1,0.2,0.2,0.2s0.2,0.1,0.2,0.3c0,0.2,0.1,0.3,0.3,0.3
		c0.1,0,0.3,0.1,0.3,0.3c0,0.1,0.1,0.3,0.2,0.3c0.1,0,0.2,0.1,0.2,0.3c0,0.1,0.2,0.4,0.4,0.7c0.2,0.2,0.4,0.5,0.4,0.6
		s0.1,0.3,0.2,0.3s0.2,0.1,0.2,0.2c0,0.2,0.4,0.7,0.7,0.7c0.1,0,0.2,0.2,0.2,0.4c0,0.2,0.1,0.5,0.3,0.6c0.2,0.1,0.3,0.4,0.4,0.6
		c0.1,0.3,0.2,0.3,13.1,0.4l13,0v-1.3c0-1.3,0-1.3-1-2.5c-0.1-0.1-0.2-0.2-0.2-0.3c0-0.2-0.5-0.6-0.7-0.6c-0.1,0-0.2-0.2-0.2-0.4
		c0-0.2-0.1-0.5-0.3-0.6c-0.2-0.1-0.3-0.4-0.3-0.5c0-0.2-0.2-0.4-0.4-0.6c-0.2-0.2-0.4-0.4-0.4-0.5c0-0.1-0.1-0.2-0.2-0.2
		c-0.1,0-0.2-0.1-0.2-0.3c0-0.2-0.1-0.3-0.3-0.3c-0.1,0-0.3-0.1-0.3-0.3c0-0.1-0.1-0.3-0.2-0.3c-0.1,0-0.2-0.1-0.2-0.3
		s-0.1-0.3-0.2-0.3s-0.2-0.1-0.2-0.3c0-0.1-0.1-0.3-0.2-0.3c-0.3,0-0.7-0.4-0.7-0.8c0-0.3-0.4-0.8-0.7-0.8c-0.1,0-0.2-0.1-0.2-0.3
		c0-0.3-0.7-1.2-1-1.2c-0.1,0-0.2-0.2-0.2-0.4s-0.1-0.5-0.3-0.6c-0.2-0.1-0.3-0.3-0.3-0.4s-0.2-0.4-0.4-0.6
		c-0.2-0.2-0.4-0.5-0.4-0.6c0-0.1-0.1-0.2-0.2-0.2c-0.1,0-0.2-0.1-0.2-0.3s-0.1-0.3-0.3-0.4c-0.1-0.1-0.3-0.2-0.3-0.3
		s-0.1-0.2-0.2-0.2s-0.2-0.1-0.2-0.3c0-0.1-0.3-0.5-0.6-0.8c-0.3-0.3-0.6-0.6-0.6-0.8c0-0.3-0.4-0.8-0.6-0.8c-0.1,0-0.2-0.1-0.2-0.3
		c0-0.2-0.3-0.6-0.6-0.9c-0.3-0.3-0.6-0.7-0.6-0.8s-0.3-0.4-0.6-0.7c-0.3-0.3-0.6-0.6-0.6-0.8c0-0.3-0.4-0.8-0.6-0.8
		c-0.1,0-0.2-0.2-0.2-0.3c0-0.2-0.1-0.3-0.2-0.3s-0.2-0.1-0.2-0.2c0-0.2-0.4-0.7-0.7-0.7c-0.1,0-0.2-0.2-0.2-0.4s-0.1-0.5-0.3-0.6
		c-0.2-0.1-0.3-0.4-0.3-0.5s-0.2-0.4-0.4-0.6c-0.2-0.2-0.4-0.4-0.4-0.5c0-0.1-0.1-0.2-0.2-0.2c-0.1,0-0.2-0.2-0.2-0.3
		c0-0.2-0.1-0.3-0.3-0.3c-0.1,0-0.3-0.1-0.3-0.3c0-0.1-0.1-0.3-0.2-0.3s-0.2-0.2-0.2-0.3c0-0.2-0.1-0.3-0.2-0.3
		c-0.1,0-0.2-0.1-0.2-0.3s-0.1-0.3-0.2-0.3c-0.3,0-0.7-0.4-0.7-0.8s-0.4-0.8-0.7-0.8c-0.1,0-0.2-0.2-0.2-0.3c0-0.4-0.7-1.2-1-1.2
		c-0.1,0-0.2-0.2-0.2-0.4c0-0.2-0.1-0.4-0.1-0.4s-0.3-0.3-0.5-0.6c-0.2-0.3-0.4-0.6-0.4-0.6c-0.1,0-0.1-0.1-0.1-0.2
		c0-0.1-0.1-0.3-0.3-0.5c-0.2-0.1-0.3-0.4-0.3-0.5s-0.2-0.4-0.4-0.6c-0.2-0.2-0.4-0.4-0.4-0.5c0-0.1-0.3-0.5-0.6-0.8
		c-0.3-0.3-0.6-0.7-0.6-0.9c0-0.2-0.1-0.3-0.2-0.3c-0.3,0-0.7-0.4-0.7-0.8c0-0.3-0.4-0.8-0.7-0.8c-0.1,0-0.2-0.1-0.2-0.3
		c0-0.1-0.1-0.3-0.2-0.3s-0.2-0.2-0.2-0.3c0-0.2-0.1-0.3-0.2-0.3c-0.1,0-0.2-0.1-0.2-0.3s-0.1-0.3-0.3-0.3c-0.1,0-0.3-0.1-0.3-0.3
		c0-0.2-0.1-0.3-0.2-0.3c-0.1,0-0.2-0.1-0.2-0.2c0-0.2-0.4-0.7-0.7-0.7c-0.1,0-0.2-0.1-0.2-0.3c0-0.3-0.7-1.2-1-1.2
		c-0.1,0-0.2-0.2-0.2-0.4s-0.1-0.5-0.3-0.6c-0.2-0.1-0.3-0.4-0.3-0.5c0-0.2-0.2-0.4-0.4-0.6c-0.2-0.2-0.4-0.4-0.4-0.5
		S468.1,69,468,69s-0.2-0.2-0.2-0.3c0-0.2-0.1-0.3-0.3-0.3c-0.1,0-0.3-0.1-0.3-0.3s-0.1-0.3-0.2-0.3c-0.1,0-0.2-0.1-0.2-0.3
		c0-0.1-0.3-0.5-0.6-0.8c-0.3-0.3-0.6-0.7-0.6-0.8c0-0.3-0.4-0.8-0.7-0.8c-0.1,0-0.2-0.2-0.2-0.3s-0.3-0.6-0.6-0.9
		c-0.8-0.7-0.8-0.7,0.4-1.9c0.5-0.6,1-1.1,1-1.3c0-0.1,0.1-0.2,0.2-0.2s0.2-0.1,0.2-0.3c0-0.1,0.1-0.3,0.2-0.3c0.2,0,1-0.7,1-0.9
		c0,0,0.3-0.3,0.6-0.7c0.3-0.3,0.6-0.7,0.6-0.8s0.1-0.3,0.3-0.3c0.1,0,0.3-0.1,0.3-0.2c0-0.1,0.4-0.6,0.9-1.1c0.5-0.5,0.9-1,0.9-1.2
		c0-0.2,0.1-0.3,0.2-0.3c0.2,0,1-0.8,1-1c0-0.1,0.1-0.2,0.2-0.2c0.3,0,1-0.9,1-1.2c0-0.2,0.1-0.3,0.2-0.3c0.2,0,0.7-0.4,0.7-0.6
		c0-0.1,0.4-0.6,0.6-0.6c0.1,0,0.6-0.4,0.6-0.6c0-0.1,0.1-0.2,0.2-0.3c0.5-0.5,0.6-0.7,0.6-0.8c0-0.2,0.5-0.6,0.7-0.6
		c0.1,0,0.2-0.1,0.2-0.1c0-0.1,0.3-0.4,0.6-0.8c0.3-0.3,0.6-0.7,0.6-0.8s0.4-0.6,0.9-1c0.5-0.5,0.9-0.9,0.9-1c0-0.2,0.5-0.6,0.7-0.6
		c0.1,0,0.2-0.2,0.2-0.3c0-0.2,0.1-0.3,0.2-0.3c0.1,0,0.2-0.1,0.2-0.3c0-0.1,0.1-0.3,0.2-0.3c0.2,0,1-0.8,1-0.9
		c0-0.1,0.2-0.3,0.4-0.4c0.2-0.2,0.4-0.4,0.4-0.6c0-0.3,0.4-0.7,0.7-0.7c0.1,0,0.2-0.1,0.2-0.2s0.3-0.5,0.8-0.9
		c0.4-0.4,0.8-0.8,0.8-1c0-0.1,0.1-0.3,0.2-0.3s0.2-0.1,0.2-0.3c0-0.1,0.1-0.3,0.2-0.3c0.2,0,1-0.8,1-1c0-0.1,0.1-0.2,0.2-0.2
		c0.3,0,0.7-0.5,0.7-0.8c0-0.2,0.1-0.3,0.2-0.3c0.2,0,1-0.8,1-1c0-0.1,0.1-0.2,0.2-0.2c0.3,0,1-0.9,1-1.2c0-0.2,0.1-0.3,0.2-0.3
		c0.2,0,0.7-0.4,0.7-0.6s0.5-0.6,0.7-0.6c0.1,0,0.2-0.1,0.2-0.1c0-0.1,0.3-0.4,0.6-0.8c0.3-0.4,0.6-0.7,0.6-0.8
		c0-0.1,0.5-0.7,1.2-1.3c0.6-0.6,1.2-1.3,1.2-1.4s0.1-0.3,0.3-0.5s0.3-0.3,0.3-0.5c0-0.1,0.1-0.2,0.2-0.2c0.2,0,0.7-0.4,0.7-0.6
		c0-0.1,0.2-0.3,0.4-0.5c0.2-0.2,0.4-0.4,0.4-0.5c0-0.3,0.7-1.1,1-1.1c0.1,0,0.2-0.1,0.2-0.2c0-0.1,0.3-0.4,0.6-0.7
		c0.3-0.3,0.6-0.6,0.6-0.8c0-0.1,0.2-0.4,0.4-0.6c0.4-0.3,0.6-1.5,0.3-2.2c-0.1-0.2-1.4-0.3-12.7-0.3c-13,0-13.1,0-13.1,0.6
		c0,0.1-0.2,0.3-0.4,0.5c-0.2,0.2-0.4,0.4-0.4,0.5c0,0.3-0.7,1.1-1,1.1c-0.1,0-0.2,0.1-0.2,0.2c0,0.1-0.3,0.4-0.6,0.7
		c-0.3,0.3-0.6,0.6-0.6,0.8c0,0.1-0.1,0.4-0.3,0.5c-0.2,0.1-0.3,0.3-0.3,0.5s-0.1,0.2-0.2,0.2c-0.3,0-1,0.9-1,1.2
		c0,0.2-0.1,0.3-0.2,0.3c-0.2,0-0.7,0.4-0.7,0.7c0,0.1-0.1,0.2-0.2,0.2c-0.3,0-1,0.9-1,1.2c0,0.2-0.1,0.3-0.2,0.3
		c-0.2,0-0.7,0.4-0.7,0.6c0,0.1-0.3,0.4-0.8,0.8c-0.4,0.4-0.8,0.8-0.8,0.9c0,0.1-0.5,0.6-1,1.2c-0.5,0.5-1,1.1-1,1.2
		s-0.1,0.3-0.2,0.3c-0.1,0-0.2,0.1-0.2,0.3c0,0.1-0.1,0.3-0.2,0.3c-0.2,0-1,0.8-1,1c0,0.1-0.1,0.2-0.3,0.3c-0.1,0.1-0.3,0.2-0.3,0.4
		c0,0.3-0.7,1.1-1,1.1c-0.1,0-0.2,0.1-0.2,0.2s-0.1,0.3-0.3,0.5s-0.3,0.4-0.3,0.6s-0.1,0.4-0.2,0.4c-0.2,0-1,0.8-1,1
		c0,0.1-0.1,0.2-0.2,0.2c-0.3,0-1,0.9-1,1.2c0,0.2-0.1,0.3-0.2,0.3c-0.2,0-0.7,0.4-0.7,0.7c0,0.1-0.1,0.2-0.2,0.2
		c-0.3,0-1,0.9-1,1.2c0,0.2-0.1,0.3-0.2,0.3c-0.2,0-0.7,0.4-0.7,0.6c0,0.1-0.3,0.4-0.6,0.7c-0.3,0.3-0.6,0.6-0.6,0.7
		s-0.3,0.5-0.8,0.9c-0.4,0.4-0.8,0.8-0.8,0.9s-0.1,0.2-0.2,0.2c-0.3,0-0.7,0.4-0.7,0.7c0,0.1-0.1,0.3-0.2,0.3
		c-0.1,0-0.2,0.1-0.2,0.3c0,0.1-0.1,0.3-0.2,0.3s-0.4,0.2-0.5,0.4c-0.2,0.2-0.5,0.6-0.6,0.7c-0.2,0.1-0.3,0.4-0.3,0.5
		c0,0.1-0.1,0.2-0.2,0.2c-0.1,0-0.2,0.1-0.2,0.2c0,0.2-0.4,0.7-0.6,0.7c-0.1,0-0.3,0.2-0.4,0.4c-0.1,0.2-0.3,0.4-0.4,0.4
		c-0.1,0-0.1,0.2-0.1,0.4c0,0.2-0.1,0.4-0.2,0.4c-0.2,0-1,0.8-1,1c0,0.1-0.1,0.2-0.2,0.2c-0.2,0-1,0.8-1,1c0,0.1-1.8,0.1-4,0.1h-4
		V18.3V-18h-11.7h-11.7L413.5,49.9 M521.7-7.7V2.7h11.8h11.8V-7.7V-18h-11.8h-11.8V-7.7 M291.3,18.5c0,0.1-0.9,0.2-2.3,0.2
		c-1.9,0-2.4,0-2.4,0.3c-0.1,0.2-0.4,0.3-1.2,0.3c-0.7,0-1.1,0.1-1.1,0.2c0,0.1-0.5,0.2-1.1,0.2c-0.6,0-1.1,0.1-1.2,0.2
		c-0.1,0.1-0.4,0.2-0.8,0.2c-0.5,0-0.7,0.1-0.7,0.3c0,0.2-0.2,0.3-0.8,0.3c-0.5,0-0.8,0.1-0.8,0.2c0,0.1-0.3,0.2-0.8,0.2
		c-0.4,0-0.8,0.1-0.8,0.2s-0.3,0.2-0.6,0.2c-0.4,0-0.6,0.1-0.6,0.3c0,0.2-0.2,0.3-0.6,0.3c-0.3,0-0.6,0.1-0.6,0.2
		c0,0.1-0.3,0.2-0.6,0.2s-0.6,0.1-0.6,0.2c0,0.1-0.2,0.2-0.4,0.2c-0.3,0-0.4,0.1-0.4,0.3c0,0.2-0.2,0.3-0.5,0.3
		c-0.3,0-0.5,0.1-0.6,0.2s-0.2,0.2-0.4,0.2c-0.2,0-0.3,0.1-0.3,0.2c0,0.1-0.2,0.2-0.4,0.2c-0.3,0-0.4,0.1-0.4,0.3s-0.2,0.3-0.4,0.3
		c-0.2,0-0.4,0.1-0.4,0.2c0,0.1-0.2,0.2-0.4,0.2s-0.4,0.1-0.4,0.2s-0.1,0.2-0.3,0.2c-0.2,0-0.3,0.1-0.3,0.3c0,0.2-0.2,0.3-0.4,0.3
		c-0.2,0-0.4,0.1-0.4,0.2c0,0.1-0.1,0.2-0.2,0.2c-0.3,0-1.3,0.5-1.3,0.7c0,0.1-0.1,0.2-0.3,0.2s-0.3,0.1-0.3,0.2s-0.1,0.2-0.3,0.2
		c-0.2,0-0.3,0.1-0.3,0.2c0,0.1-0.1,0.2-0.3,0.2c-0.1,0-0.3,0.1-0.3,0.3c0,0.1-0.1,0.3-0.3,0.3c-0.2,0-0.3,0.1-0.3,0.2
		c0,0.1-0.1,0.2-0.3,0.2c-0.1,0-0.3,0.1-0.3,0.2s-0.1,0.2-0.3,0.2c-0.2,0-0.3,0.1-0.3,0.3c0,0.1-0.1,0.3-0.3,0.3s-0.3,0.1-0.3,0.2
		c0,0.1-0.1,0.2-0.3,0.2c-0.1,0-0.6,0.3-1,0.8c-0.4,0.4-0.8,0.8-0.9,0.8c-0.1,0-0.4,0.2-0.6,0.4s-0.5,0.4-0.5,0.4
		c-0.1,0-0.6,0.4-0.6,0.6c0,0.1-0.4,0.6-0.6,0.6c-0.2,0-0.6,0.5-0.6,0.7c0,0.1-0.1,0.2-0.2,0.2c-0.2,0-1,0.8-1,1
		c0,0.1-0.1,0.2-0.2,0.2c-0.2,0-0.7,0.4-0.7,0.6c0,0.1-0.4,0.6-0.6,0.6c-0.1,0-0.6,0.4-0.6,0.6c0,0.1-0.2,0.3-0.4,0.5
		c-0.2,0.2-0.4,0.5-0.4,0.6c0,0.1-0.3,0.4-0.6,0.7c-0.3,0.3-0.6,0.6-0.6,0.8c0,0.1-0.2,0.4-0.3,0.5s-0.3,0.3-0.3,0.4
		c0,0.1-0.1,0.2-0.3,0.3c-0.1,0.1-0.3,0.2-0.3,0.4c0,0.1-0.1,0.3-0.2,0.3s-0.2,0.2-0.2,0.4c0,0.2-0.2,0.5-0.4,0.7
		c-0.2,0.2-0.4,0.4-0.4,0.5c0,0.1-0.1,0.4-0.3,0.6c-0.2,0.2-0.3,0.5-0.3,0.7s-0.1,0.3-0.3,0.3c-0.2,0-0.3,0.2-0.3,0.4
		c0,0.2-0.1,0.4-0.2,0.4c-0.1,0-0.2,0.1-0.2,0.3s-0.1,0.4-0.2,0.4c-0.1,0.1-0.2,0.2-0.2,0.4s-0.1,0.3-0.3,0.4
		c-0.1,0.1-0.3,0.2-0.3,0.4c0,0.2-0.1,0.3-0.2,0.3s-0.2,0.2-0.2,0.4c0,0.2-0.1,0.4-0.2,0.4c-0.1,0-0.2,0.2-0.2,0.5
		c0,0.3-0.1,0.5-0.3,0.6c-0.1,0.1-0.3,0.2-0.3,0.4s-0.1,0.4-0.2,0.4c-0.1,0.1-0.2,0.3-0.2,0.6c0,0.3-0.1,0.5-0.2,0.5
		s-0.2,0.3-0.2,0.6c0,0.4-0.1,0.6-0.3,0.6c-0.2,0-0.3,0.2-0.3,0.6c0,0.3-0.1,0.6-0.2,0.6c-0.1,0-0.2,0.4-0.2,0.8
		c0,0.6-0.1,0.8-0.3,0.8c-0.2,0-0.3,0.2-0.3,0.8c0,0.4-0.1,0.8-0.2,0.8c-0.1,0-0.2,0.4-0.2,1c0,0.6-0.1,1-0.2,1
		c-0.1,0-0.2,0.5-0.2,1.2c0,0.9-0.1,1.2-0.3,1.2c-0.2,0-0.3,0.3-0.3,1.8c0,1.1-0.1,1.8-0.2,1.8c-0.1,0-0.2,4.4-0.2,13
		c0,8.6,0.1,13,0.2,13c0.1,0,0.2,0.7,0.2,1.8c0,1.4,0,1.8,0.3,1.9c0.2,0.1,0.3,0.4,0.3,1.2c0,0.6,0.1,1.1,0.2,1.1
		c0.1,0,0.2,0.4,0.2,0.8c0,0.5,0.1,0.8,0.2,0.8c0.1,0,0.2,0.3,0.2,0.7c0,0.4,0.1,0.7,0.3,0.8c0.2,0.1,0.3,0.3,0.3,0.7
		c0,0.3,0.1,0.6,0.2,0.6c0.1,0,0.2,0.3,0.2,0.6c0,0.4,0.1,0.6,0.3,0.6c0.2,0,0.3,0.2,0.3,0.6c0,0.3,0.1,0.6,0.2,0.6s0.2,0.2,0.2,0.4
		c0,0.2,0.1,0.4,0.2,0.4c0.1,0,0.2,0.2,0.2,0.4c0,0.3,0.1,0.4,0.3,0.4c0.1,0,0.3,0.1,0.3,0.3c0,0.2,0.1,0.3,0.2,0.3
		c0.1,0,0.2,0.2,0.2,0.4c0,0.2,0.1,0.4,0.2,0.4s0.2,0.1,0.2,0.3c0,0.2,0.2,0.5,0.4,0.6c0.2,0.2,0.4,0.5,0.4,0.6
		c0,0.3,0.4,0.8,0.7,0.8c0.1,0,0.2,0.2,0.2,0.3c0,0.2,0.4,0.7,0.9,1.2c0.5,0.5,0.9,1,0.9,1.1c0,0.2,1.1,1.3,1.4,1.3
		c0.1,0,0.6,0.4,1,0.9c0.5,0.5,1,0.9,1.2,0.9c0.2,0,0.3,0.1,0.3,0.2c0,0.3,0.5,0.6,0.9,0.6c0.2,0,0.3,0.1,0.3,0.2s0.1,0.2,0.3,0.2
		s0.4,0.2,0.6,0.4c0.2,0.2,0.5,0.4,0.7,0.4c0.2,0,0.4,0.1,0.4,0.2c0,0.1,0.3,0.2,0.6,0.2c0.4,0,0.6,0.1,0.6,0.3
		c0,0.1,0.1,0.3,0.3,0.3c0.2,0,0.3,0.1,0.3,0.2s0.3,0.2,0.6,0.2s0.6,0.1,0.6,0.2c0,0.1,0.3,0.2,0.6,0.2c0.4,0,0.6,0.1,0.6,0.3
		s0.2,0.3,0.6,0.3c0.3,0,0.6,0.1,0.6,0.2c0,0.1,0.4,0.2,0.8,0.2s0.8,0.1,0.8,0.2c0,0.1,0.6,0.2,1.3,0.2c1.1,0,1.3,0,1.3,0.3
		c0,0.2,0.7,0.3,5.2,0.3c4.4,0,5.2,0,5.3-0.3c0.1-0.2,0.4-0.3,1.2-0.3c0.7,0,1.1-0.1,1.1-0.2c0-0.1,0.4-0.2,0.8-0.2
		c0.5,0,0.8-0.1,0.8-0.2c0-0.1,0.3-0.2,0.8-0.2c0.6,0,0.8-0.1,0.8-0.3c0-0.2,0.2-0.3,0.6-0.3c0.3,0,0.6-0.1,0.6-0.2
		c0-0.1,0.3-0.2,0.6-0.2s0.6-0.1,0.6-0.2s0.2-0.2,0.5-0.2c0.3,0,0.5-0.1,0.6-0.3c0.1-0.1,0.3-0.3,0.5-0.3c0.2,0,0.4-0.1,0.4-0.2
		c0-0.1,0.2-0.2,0.4-0.2s0.4-0.1,0.4-0.2c0-0.1,0.2-0.2,0.3-0.2c0.2,0,0.3-0.1,0.3-0.3c0-0.2,0.2-0.3,0.4-0.3c0.2,0,0.4-0.1,0.4-0.2
		s0.2-0.2,0.4-0.2c0.2,0,0.4-0.1,0.4-0.2c0-0.1,0.1-0.2,0.3-0.2c0.1,0,0.3-0.1,0.4-0.3c0.1-0.1,0.3-0.3,0.5-0.3s0.5-0.1,0.6-0.3
		c0.1-0.2,0.4-0.3,0.5-0.3c0.2,0,0.4-0.2,0.6-0.4c0.2-0.2,0.5-0.4,0.6-0.4c0.3,0,0.8-0.4,0.8-0.7c0-0.1,0.2-0.2,0.3-0.2
		s0.6-0.3,0.9-0.6c0.3-0.3,0.7-0.6,0.8-0.6c0.1,0,0.3-0.1,0.3-0.2c0-0.1,0.1-0.2,0.2-0.2c0.2,0,0.7-0.4,0.7-0.6
		c0-0.2,0.5-0.6,0.7-0.6c0.1,0,0.4-0.2,0.6-0.4c0.2-0.2,0.4-0.4,0.5-0.4c0.2,0,0.6-0.4,0.6-0.7c0-0.1,0.1-0.2,0.2-0.2
		c0.2,0,1-0.8,1-1c0-0.1,0.2-0.2,0.3-0.2c0.2,0,0.7-0.4,1.2-0.9c0.5-0.5,1-0.9,1.1-0.9c0.1,0,0.2-0.1,0.2-0.2c0-0.2,0.4-0.7,0.7-0.7
		c0.1,0,0.4-0.3,0.8-0.6c0.9-1,0.9-1.2,0.9,7.3v7.8H318h11.5V68.1V18.3h-19.1C297.8,18.3,291.3,18.4,291.3,18.5 M506.1,18.7
		c0,0.2-0.1,4.6,0,9.7l0,9.3l7.8,0l7.8,0l0,40l0,40h11.7h11.7V68.1V18.4l-19.5,0l-19.5,0L506.1,18.7 M306.5,60.3
		c0,20.4,0,22.4-0.3,22.4c-0.1,0-0.5,0.3-0.9,0.6c-0.3,0.3-0.6,0.6-0.7,0.6c-0.1,0-0.1,0.1-0.1,0.2c0,0.2-0.4,0.7-0.7,0.7
		c-0.1,0-0.2,0.1-0.2,0.2s-0.1,0.2-0.3,0.2c-0.2,0-0.3,0.1-0.3,0.3c0,0.1-0.1,0.3-0.2,0.3c-0.2,0-1,0.8-1,1c0,0.1-0.1,0.2-0.3,0.2
		c-0.1,0-0.3,0.1-0.3,0.2s-0.1,0.2-0.3,0.2c-0.1,0-0.6,0.3-1,0.8c-0.4,0.4-0.8,0.8-0.9,0.8c-0.1,0-0.2,0.1-0.2,0.3
		c0,0.1-0.1,0.3-0.3,0.3c-0.2,0-0.3,0.1-0.3,0.2c0,0.1-0.1,0.2-0.2,0.2c-0.2,0-0.7,0.4-0.7,0.6c0,0.2-0.5,0.6-0.8,0.6
		c-0.3,0-0.8,0.4-0.8,0.7c0,0.1-0.1,0.2-0.3,0.2c-0.1,0-0.3,0.1-0.3,0.2c0,0.1-0.1,0.2-0.3,0.2c-0.2,0-0.3,0.1-0.3,0.2
		s-0.1,0.2-0.3,0.2c-0.1,0-0.3,0.1-0.3,0.2c0,0.3-0.4,0.7-0.8,0.7c-0.3,0-0.8,0.4-0.8,0.7c0,0.1-0.2,0.2-0.4,0.2
		c-0.2,0-0.5,0.2-0.6,0.3c-0.1,0.2-0.4,0.3-0.5,0.3c-0.2,0-0.3,0.1-0.4,0.3c-0.1,0.1-0.2,0.3-0.4,0.3s-0.4,0.1-0.4,0.2
		c-0.1,0.1-0.2,0.2-0.4,0.2c-0.1,0-0.4,0.2-0.6,0.4c-0.2,0.2-0.5,0.4-0.6,0.4c-0.1,0-0.3,0.1-0.3,0.2c0,0.1-0.2,0.2-0.4,0.2
		s-0.4,0.1-0.4,0.2c0,0.1-0.2,0.2-0.3,0.2c-0.2,0-0.4,0.1-0.4,0.3c-0.1,0.1-0.3,0.3-0.6,0.3c-0.3,0-0.5,0.1-0.6,0.2
		c-0.1,0.1-0.2,0.2-0.4,0.2c-0.2,0-0.3,0.1-0.3,0.2c0,0.1-0.3,0.2-0.6,0.2c-0.4,0-0.6,0.1-0.6,0.3c0,0.2-0.2,0.3-0.7,0.3
		c-0.4,0-0.8,0.1-0.8,0.2c-0.1,0.1-0.4,0.2-0.8,0.2c-0.4,0-0.7,0.1-0.7,0.2c0,0.1-0.8,0.2-2.2,0.2c-1.3,0-2.2-0.1-2.2-0.2
		c0-0.1-0.4-0.2-1-0.2s-1-0.1-1-0.2s-0.2-0.2-0.5-0.2c-0.3,0-0.6-0.1-0.8-0.3c-0.1-0.1-0.4-0.3-0.7-0.3c-0.2,0-0.4-0.1-0.4-0.2
		c0-0.1-0.2-0.2-0.4-0.2c-0.2,0-0.5-0.2-0.7-0.4c-0.2-0.2-0.4-0.4-0.5-0.4c-0.3,0-1.9-1.6-1.9-1.9c0-0.1-0.1-0.2-0.2-0.2
		s-0.2-0.1-0.2-0.3c0-0.1-0.1-0.3-0.3-0.3c-0.2,0-0.3-0.2-0.3-0.4c0-0.2-0.1-0.4-0.2-0.4c-0.1,0-0.2-0.2-0.2-0.3s-0.1-0.3-0.2-0.3
		c-0.1,0-0.2-0.2-0.2-0.4s-0.1-0.5-0.3-0.7c-0.1-0.1-0.3-0.5-0.3-0.8c0-0.3-0.1-0.5-0.2-0.5s-0.2-0.4-0.2-0.8s-0.1-0.8-0.2-0.8
		c-0.1,0-0.2-0.6-0.2-1.5c0-1.2,0-1.5-0.3-1.5c-0.2,0-0.3-1.2-0.3-9.6c0-8.3,0-9.6,0.3-9.7c0.2-0.1,0.3-0.5,0.3-2
		c0-1.2,0.1-1.9,0.2-1.9c0.1,0,0.2-0.4,0.2-1s0.1-1,0.2-1c0.1,0,0.2-0.3,0.2-0.7c0-0.4,0.1-0.8,0.3-0.9c0.1-0.1,0.3-0.5,0.3-0.8
		c0-0.3,0.1-0.6,0.2-0.6c0.1,0,0.2-0.3,0.2-0.6c0-0.3,0.1-0.6,0.2-0.6c0.1,0,0.2-0.3,0.2-0.6c0-0.3,0.1-0.6,0.3-0.7
		c0.1-0.1,0.3-0.2,0.3-0.4c0-0.2,0.1-0.3,0.2-0.3s0.2-0.2,0.2-0.4c0-0.2,0.1-0.4,0.2-0.4c0.1,0,0.2-0.1,0.2-0.3
		c0-0.2,0.1-0.4,0.3-0.4c0.1-0.1,0.3-0.2,0.3-0.4c0-0.2,0.1-0.3,0.2-0.3c0.1,0,0.2-0.2,0.2-0.4c0-0.2,0.2-0.5,0.4-0.7
		c0.2-0.2,0.4-0.4,0.4-0.6s0.2-0.4,0.3-0.5c0.2-0.1,0.3-0.4,0.3-0.6s0.1-0.4,0.2-0.4s0.4-0.2,0.5-0.4c0.2-0.2,0.5-0.6,0.6-0.7
		c0.2-0.1,0.3-0.4,0.3-0.5c0-0.1,0.1-0.2,0.2-0.2c0.1,0,0.2-0.1,0.2-0.2c0-0.2,0.4-0.7,0.6-0.7c0.1,0,0.2-0.1,0.3-0.2
		c0.5-0.5,0.7-0.6,0.8-0.6c0.1,0,0.4-0.3,0.8-0.8c0.4-0.4,0.8-0.8,0.9-0.8c0.1,0,0.4-0.2,0.6-0.4c0.2-0.2,0.5-0.4,0.6-0.4
		c0.1,0,0.3-0.1,0.3-0.2c0-0.1,0.1-0.2,0.3-0.2c0.1,0,0.3-0.1,0.3-0.2s0.2-0.2,0.3-0.2s0.4-0.1,0.4-0.3c0.1-0.1,0.2-0.3,0.4-0.3
		c0.2,0,0.3-0.1,0.3-0.2c0-0.1,0.2-0.2,0.4-0.2c0.3,0,0.4-0.1,0.4-0.3s0.2-0.3,0.4-0.3c0.2,0,0.4-0.1,0.4-0.2c0-0.1,0.2-0.2,0.5-0.2
		c0.3,0,0.5-0.1,0.6-0.2c0.1-0.1,0.2-0.2,0.4-0.2c0.2,0,0.3-0.1,0.3-0.3c0-0.2,0.2-0.3,0.6-0.3c0.3,0,0.6-0.1,0.6-0.2
		c0-0.1,0.3-0.2,0.7-0.2c0.4,0,0.8-0.1,0.8-0.2c0.1-0.1,0.4-0.2,0.8-0.2c0.5,0,0.7-0.1,0.7-0.3c0-0.2,0.2-0.3,1-0.3
		c0.6,0,1-0.1,1-0.2c0-0.1,0.8-0.2,1.9-0.2c1.2,0,1.9-0.1,1.9-0.2c0-0.1,2.3-0.2,6.5-0.2h6.5V60.3 M150-23.7"/>
	<path id="path4" class="st2" d="M229.9-17.7c-0.1,0.1-0.1,0.4,0,0.5c0.1,0.2,0.1,0.2,0.1-0.1c0-0.2,0.1-0.5,0.2-0.5
		c0.2-0.1,0.2-0.1,0-0.1C230.1-18,229.9-17.9,229.9-17.7 M253-17.9c0.1,0.1,0.2,0.3,0.1,0.6c-0.1,0.3-0.1,0.4,0.1,0.2
		C253.4-17.3,253.3-17.9,253-17.9C252.8-18,252.8-18,253-17.9 M216.5-16.7c0,0.3-0.1,0.6-0.2,0.6c-0.2,0.1-0.2,0.1,0,0.1
		c0.3,0,0.4-0.4,0.3-0.8C216.6-17.2,216.5-17.1,216.5-16.7 M229.6-16.7c-0.1,0.1-0.1,0.2-0.1,0.4c0,0.2,0,0.2,0.2,0.1
		c0.1-0.1,0.2-0.3,0.1-0.4C229.8-16.8,229.7-16.8,229.6-16.7 M251.7-12.2c0,0.2-0.1,0.4-0.2,0.4c-0.1,0-0.2,0.2-0.1,0.3
		C251.5-11.1,251.9-11.9,251.7-12.2C251.7-12.5,251.7-12.5,251.7-12.2 M227.6-9.7c-0.1,0.1-0.1,0.4-0.1,0.7s-0.1,0.6-0.2,0.6
		c-0.1,0.1-0.2,0.2-0.2,0.3c0,0.5,0.5-0.5,0.5-1c0-0.3,0.1-0.6,0.2-0.6c0.1,0,0.1-0.1,0-0.1C227.8-9.8,227.7-9.8,227.6-9.7
		 M214.5-9.6c-0.1,0.1-0.1,0.2-0.1,0.4c0,0.2,0,0.2,0.2,0.1c0.1-0.1,0.2-0.3,0.1-0.4C214.6-9.6,214.5-9.6,214.5-9.6 M250.7-8.8
		c-0.1,0.3-0.2,0.6-0.1,0.8c0.1,0.2,0.1,0.2,0.1-0.1c0-0.2,0.1-0.5,0.2-0.7c0.1-0.2,0.1-0.4,0.1-0.4C250.9-9.3,250.8-9.1,250.7-8.8
		 M214.2-8.5c0,0.2-0.1,0.5-0.2,0.5c-0.2,0.1-0.2,0.1,0,0.1c0.3,0,0.4-0.4,0.3-0.8C214.2-8.8,214.2-8.8,214.2-8.5 M212-1.3
		c-0.1,0.2-0.2,0.4-0.1,0.4c0.1,0.1,0.5-0.4,0.4-0.6C212.3-1.6,212.1-1.5,212-1.3 M248.4-1c-0.2,0.2-0.3,0.5,0,0.5
		c0.2,0,0.4-0.5,0.3-0.6C248.6-1.1,248.5-1.1,248.4-1 M187.8,2.1c-0.1,0.1-0.1,0.2-0.1,0.3c0,0.2,0,0.2,0.3,0
		c0.1-0.1,0.3-0.3,0.3-0.3C188.2,2,187.9,2,187.8,2.1 M224.1,2.6c-0.1,0.1-0.1,0.4,0,0.5c0.1,0.2,0.1,0.2,0.1-0.1
		c0-0.2,0.1-0.4,0.2-0.4c0.1,0,0.2-0.1,0.2-0.2C224.5,2.3,224.2,2.3,224.1,2.6 M186.6,6.4c-0.1,0.1-0.1,0.3,0,0.5
		c0,0.1,0.1,0.1,0.1-0.1c0-0.2,0.1-0.4,0.2-0.4c0.2-0.1,0.2-0.1,0-0.1C186.8,6.2,186.6,6.3,186.6,6.4 M209.9,6.6
		c0,0.2-0.1,0.4-0.2,0.4c-0.1,0-0.2,0.1-0.1,0.2C209.8,7.5,210,7.1,209.9,6.6C209.9,6.3,209.9,6.3,209.9,6.6 M246.2,7
		c0,0.2-0.1,0.3-0.2,0.4c-0.1,0-0.2,0.1-0.1,0.2C246.1,7.8,246.4,7.4,246.2,7C246.2,6.8,246.2,6.8,246.2,7 M185.5,10.2
		c-0.2,0.6-0.1,0.8,0.1,0.5c0.3-0.4,0.3-0.6,0.1-0.6C185.6,10.2,185.5,10.2,185.5,10.2 M221.9,10.6c-0.1,0-0.2,0.2-0.2,0.4
		c0,0.2,0,0.3,0.1,0.1c0.1-0.1,0.2-0.3,0.3-0.4C222.3,10.7,222.2,10.5,221.9,10.6 M245,11.1c0,0.2-0.1,0.4-0.2,0.4
		c-0.2,0.1-0.2,0.1,0,0.1c0.3,0,0.4-0.4,0.3-0.7C245.1,10.9,245,10.9,245,11.1 M207.4,15c-0.3,0.3-0.3,0.5,0,0.4
		c0.1,0,0.2-0.2,0.2-0.3C207.6,14.8,207.6,14.8,207.4,15 M219.4,18.8c-0.2,0.3-0.1,0.6,0.1,0.4c0.1-0.1,0.3-0.3,0.3-0.4
		C219.8,18.7,219.6,18.6,219.4,18.8 M217.4,25.9c-0.1,0.1-0.1,0.4,0,0.6c0.1,0.3,0.1,0.3,0.1-0.1c0-0.3,0.1-0.6,0.2-0.6
		c0.2-0.1,0.2-0.1,0-0.1C217.6,25.7,217.4,25.8,217.4,25.9 M179.9,29.8c-0.1,0.2-0.1,0.5,0,0.6c0,0.1,0.1,0,0.1-0.2s0.1-0.5,0.2-0.5
		c0.1,0,0.2-0.1,0.2-0.2C180.3,29.2,180,29.4,179.9,29.8 M216.2,30c-0.1,0.2-0.1,0.4,0,0.4c0.1,0.1,0.1,0,0.1-0.2
		c0-0.2,0.1-0.3,0.2-0.3s0.2-0.1,0.2-0.2C216.7,29.5,216.4,29.7,216.2,30 M178.7,33.8c-0.1,0.1-0.1,0.4,0,0.5
		c0.1,0.2,0.1,0.2,0.1-0.1c0-0.2,0.1-0.5,0.2-0.5c0.2-0.1,0.2-0.1,0-0.1C178.9,33.5,178.8,33.6,178.7,33.8 M178.5,34.8
		c-0.1,0.1-0.1,0.2-0.1,0.4c0,0.2,0,0.2,0.2,0.1c0.1-0.1,0.2-0.3,0.1-0.4C178.6,34.7,178.5,34.7,178.5,34.8 M238,35.4
		c0,0.2-0.1,0.4-0.1,0.6c-0.1,0.2-0.1,0.3,0.1,0.1c0.1-0.1,0.2-0.4,0.1-0.6C238.1,35.3,238,35.2,238,35.4 M214,38
		c-0.1,0-0.2,0.2-0.2,0.3c0,0.2,0,0.2,0.3,0C214.4,38,214.4,37.8,214,38 M176.4,41.9c-0.1,0.1-0.1,0.3,0,0.5c0,0.1,0.1,0.1,0.1-0.1
		c0-0.2,0.1-0.4,0.2-0.4c0.2-0.1,0.2-0.1,0-0.1C176.6,41.7,176.4,41.8,176.4,41.9 M175.3,45.8c-0.1,0.1-0.1,0.2-0.1,0.3
		c0,0.2,0,0.2,0.3,0c0.1-0.1,0.3-0.3,0.3-0.3C175.7,45.6,175.4,45.7,175.3,45.8 M211.7,46.2c0,0.1,0,0.3-0.1,0.5
		c-0.1,0.3-0.1,0.3,0.2,0c0.3-0.4,0.3-0.6,0.1-0.6C211.7,46,211.7,46.1,211.7,46.2 M172.9,54c-0.2,0.3-0.1,0.6,0.1,0.4
		c0.1-0.1,0.3-0.3,0.3-0.4C173.3,53.8,173.1,53.8,172.9,54 M170.5,62.3c0,0.2,0,0.2,0.3,0.1c0.1-0.1,0.3-0.2,0.3-0.3
		c0,0-0.1-0.1-0.3-0.1C170.6,62,170.5,62.1,170.5,62.3 M193.7,62.8c-0.1,0.2-0.1,0.4-0.1,0.4c0.1,0,0.4-0.6,0.3-0.8
		C193.9,62.4,193.8,62.5,193.7,62.8 M204.8,70c0,0.3,0,0.5,0.1,0.5c0,0,0.1-0.2,0.1-0.5c0-0.3,0-0.5-0.1-0.5
		C204.9,69.5,204.8,69.7,204.8,70 M227.7,71.3c-0.1,0.2-0.1,0.4,0,0.4c0.2,0,0.4-0.4,0.3-0.7C227.9,70.9,227.8,71,227.7,71.3
		 M167.4,73.3c-0.2,0.4,0,0.6,0.2,0.2c0.1-0.2,0.1-0.4,0-0.4C167.6,73,167.4,73.1,167.4,73.3 M190.3,74.6c0,0.2-0.1,0.5-0.2,0.6
		c-0.2,0.2-0.2,0.2,0.1,0.1c0.3-0.1,0.4-1.1,0.2-1.1C190.4,74.2,190.3,74.3,190.3,74.6 M225.5,79c0,0.2-0.1,0.5-0.2,0.6
		c-0.1,0.1-0.2,0.2-0.2,0.3c0,0.1,0.1,0.1,0.3-0.1C225.6,79.7,225.7,79.4,225.5,79l0-0.4L225.5,79 M201.4,81.9
		c-0.2,0.5,0,0.5,0.2,0.1c0.1-0.2,0.1-0.4,0.1-0.4C201.6,81.5,201.5,81.7,201.4,81.9 M185.9,90.2c-0.1,0.2-0.1,0.3,0,0.3
		c0.1,0,0.2-0.1,0.3-0.3C186.3,89.9,186.1,89.8,185.9,90.2 M222.2,90.5c-0.1,0.1-0.2,0.3-0.1,0.3c0.1,0.1,0.5-0.2,0.4-0.4
		C222.4,90.3,222.3,90.3,222.2,90.5 M183.5,98.2c-0.3,0.4-0.2,0.5,0.1,0.3c0.1-0.1,0.2-0.3,0.2-0.4
		C183.8,97.9,183.7,97.9,183.5,98.2 M219.8,98.7c-0.1,0.1-0.2,0.2-0.1,0.3c0.1,0.1,0.2,0,0.3-0.1C220.3,98.6,220.1,98.5,219.8,98.7
		 M218.8,102.5c0,0.2-0.1,0.4-0.2,0.4c-0.2,0.1-0.2,0.1,0,0.1c0.3,0,0.4-0.4,0.3-0.7C218.9,102.2,218.9,102.3,218.8,102.5
		 M181.2,106.5c-0.3,0.3-0.2,0.4,0.1,0.2c0.1-0.1,0.2-0.2,0.2-0.3C181.4,106.3,181.3,106.3,181.2,106.5 M180.3,109.3
		c-0.3,0.5-0.2,0.6,0.1,0.2c0.1-0.2,0.2-0.4,0.2-0.5C180.6,109,180.4,109.1,180.3,109.3 M180.2,110.3c0,0.2-0.1,0.4-0.2,0.4
		c-0.2,0.1-0.2,0.1,0,0.1c0.3,0,0.4-0.4,0.3-0.7C180.2,110,180.2,110.1,180.2,110.3 M216.5,110.5c0,0.2-0.1,0.5-0.2,0.5
		c-0.2,0.1-0.2,0.1,0,0.1c0.3,0,0.4-0.4,0.3-0.8C216.6,110.2,216.5,110.2,216.5,110.5 M192.4,113.7c0,0.3,0,0.5,0.1,0.3
		c0-0.2,0-0.4,0-0.6C192.4,113.2,192.4,113.4,192.4,113.7 M215.4,114.5c0,0.2-0.1,0.5-0.2,0.5c-0.1,0-0.2,0.2-0.1,0.3
		C215.2,115.7,215.5,114.9,215.4,114.5C215.4,114.1,215.4,114.2,215.4,114.5 M154.9,116.9c-0.4,1-0.8,0.9,11.6,0.9l11.4,0l-11.3,0
		l-11.3,0l-0.2-0.4c-0.1-0.3-0.1-0.4,0-0.5c0.1-0.1,0.1-0.1,0-0.1C155.1,116.7,154.9,116.8,154.9,116.9 M214.4,117.5
		c-0.1,0.1-4.4,0.2-11.5,0.2l-11.3,0l11.3,0c10.3,0,12.1,0,11.7-0.4C214.6,117.4,214.5,117.4,214.4,117.5 M150-23.7"/>
</g>
</svg>
