<?xml version="1.0" encoding="utf-8"?>
<!-- Generator: Adobe Illustrator 19.0.0, SVG Export Plug-In . SVG Version: 6.00 Build 0)  -->
<svg version="1.1" id="Layer_1" xmlns="http://www.w3.org/2000/svg" xmlns:xlink="http://www.w3.org/1999/xlink" x="0px" y="0px"
	 viewBox="-27 13 234 111" style="enable-background:new -27 13 234 111;" xml:space="preserve">
<title>Logo</title>
<g>
	<path d="M51,42.5c3.4,0,6.8,0,10.2,0c0.5,0,1.1,0,1.6-0.2c2.2-0.5,3.3-2.7,2.6-4.5c-1.2-3.3-2.8-6.4-4.6-9.4
		c-0.8-1.3-2-2.1-3.5-2.4c-0.7-0.1-1.4-0.2-2.1-0.2c-4.8,0-9.7,0-14.5,0c-2.6,0-4.4,1.8-4.4,4.4c0,2.6,0,5.2,0,7.8
		c0,2.7,1.8,4.4,4.5,4.4L51,42.5 M52.6,55c-7.2,0-14.4,0-21.6,0c-3,0-5.7-0.9-7.8-3c-2-2-3.1-4.4-3.2-7.3c0-7.1,0-14.2,0-21.3
		c0-5.6,4.6-10.2,10.4-10.3c10.1-0.1,20.3,0,30.4,0c2.8,0,5.5,0.7,7.9,2.1c2.3,1.4,4,3.4,5.3,5.8c2.9,5.4,5.8,10.8,8.3,16.4
		c0.9,2.1,1.8,4.2,2.5,6.4c1.1,3.5-0.1,6.4-2.8,8.7c-1.8,1.6-4,2.2-6.3,2.4C74.7,55,74,55,73.2,55C66.3,55,59.5,55,52.6,55
		 M32.5,76.1c0,1.9-0.5,3.4-1.5,4.5c-1,1.1-2.3,1.6-4,1.6c-1.1,0-2-0.2-2.8-0.7c-0.8-0.5-1.4-1.2-1.9-2.1c-0.4-0.9-0.7-2-0.7-3.2
		c0-1.9,0.5-3.4,1.4-4.5c1-1.1,2.3-1.6,4-1.6c1.6,0,3,0.5,3.9,1.6C32,72.8,32.5,74.2,32.5,76.1z M23.5,76.1c0,1.5,0.3,2.7,0.9,3.4
		c0.6,0.8,1.5,1.2,2.7,1.2c1.2,0,2.1-0.4,2.7-1.2c0.6-0.8,0.9-1.9,0.9-3.4c0-1.5-0.3-2.6-0.9-3.4c-0.6-0.8-1.5-1.2-2.7-1.2
		c-1.2,0-2,0.4-2.6,1.1C23.8,73.4,23.5,74.6,23.5,76.1L23.5,76.1z M41.1,82.2c-0.8,0-1.5-0.1-2.1-0.4c-0.6-0.3-1.2-0.7-1.6-1.3h-0.1
		c0.1,0.7,0.1,1.3,0.1,2v4.8h-1.8V70.2h1.5l0.2,1.6h0.1c0.5-0.6,1-1.1,1.6-1.4c0.6-0.3,1.3-0.4,2.1-0.4c1.6,0,2.8,0.5,3.6,1.6
		c0.9,1.1,1.3,2.6,1.3,4.5c0,1.9-0.4,3.4-1.3,4.5C43.8,81.7,42.6,82.2,41.1,82.2L41.1,82.2z M40.9,71.5c-1.2,0-2.1,0.3-2.6,1
		s-0.8,1.7-0.8,3.2v0.4c0,1.7,0.3,2.8,0.8,3.6c0.6,0.7,1.4,1.1,2.7,1.1c1,0,1.8-0.4,2.4-1.2c0.6-0.8,0.9-2,0.9-3.4
		c0-1.5-0.3-2.6-0.9-3.4C42.7,71.9,41.9,71.5,40.9,71.5L40.9,71.5z M54.1,82.2c-1.7,0-3.1-0.5-4.1-1.6c-1-1.1-1.5-2.5-1.5-4.4
		c0-1.9,0.5-3.4,1.4-4.5c0.9-1.1,2.2-1.7,3.8-1.7c1.5,0,2.6,0.5,3.5,1.5c0.9,1,1.3,2.3,1.3,3.8v1.1h-8.1c0,1.4,0.4,2.4,1,3.1
		c0.7,0.7,1.6,1.1,2.8,1.1c1.3,0,2.5-0.3,3.8-0.8v1.6c-0.6,0.3-1.2,0.5-1.8,0.6C55.6,82.2,54.9,82.2,54.1,82.2z M53.6,71.5
		c-0.9,0-1.7,0.3-2.3,0.9c-0.6,0.6-0.9,1.5-1,2.6h6.2c0-1.1-0.3-2-0.8-2.6C55.3,71.8,54.5,71.5,53.6,71.5L53.6,71.5z M69.5,82v-7.6
		c0-1-0.2-1.7-0.7-2.2c-0.4-0.5-1.1-0.7-2.1-0.7c-1.2,0-2.1,0.3-2.7,1c-0.6,0.7-0.9,1.8-0.9,3.3V82h-1.8V70.2h1.5l0.3,1.6h0.1
		c0.4-0.6,0.9-1,1.5-1.3c0.7-0.3,1.4-0.5,2.2-0.5c1.4,0,2.5,0.3,3.2,1c0.7,0.7,1.1,1.8,1.1,3.3V82H69.5z M80.3,70c0.5,0,1,0,1.4,0.1
		l-0.2,1.7c-0.5-0.1-0.9-0.2-1.3-0.2c-1,0-1.8,0.4-2.4,1.2c-0.7,0.8-1,1.7-1,2.9V82H75V70.2h1.5l0.2,2.2h0.1c0.4-0.8,1-1.4,1.6-1.8
		C78.9,70.2,79.6,70,80.3,70L80.3,70z M88.5,82.2c-1.7,0-3.1-0.5-4.1-1.6s-1.5-2.5-1.5-4.4c0-1.9,0.5-3.4,1.4-4.5
		c0.9-1.1,2.2-1.7,3.8-1.7c1.5,0,2.6,0.5,3.5,1.5s1.3,2.3,1.3,3.8v1.1h-8.1c0,1.4,0.4,2.4,1,3.1c0.7,0.7,1.6,1.1,2.8,1.1
		c1.3,0,2.5-0.3,3.8-0.8v1.6c-0.6,0.3-1.2,0.5-1.8,0.6C89.9,82.2,89.3,82.2,88.5,82.2L88.5,82.2z M88,71.5c-0.9,0-1.7,0.3-2.3,0.9
		c-0.6,0.6-0.9,1.5-1,2.6h6.2c0-1.1-0.3-2-0.8-2.6C89.6,71.8,88.9,71.5,88,71.5L88,71.5z M103.4,78.8c0,1.1-0.4,1.9-1.2,2.5
		c-0.8,0.6-2,0.9-3.4,0.9c-1.6,0-2.8-0.2-3.7-0.7v-1.7c0.6,0.3,1.2,0.5,1.8,0.7c0.7,0.2,1.3,0.2,1.9,0.2c0.9,0,1.6-0.1,2.2-0.4
		c0.5-0.3,0.8-0.8,0.8-1.4c0-0.5-0.2-0.8-0.6-1.2c-0.4-0.3-1.2-0.7-2.3-1.2c-1.1-0.4-1.9-0.8-2.3-1.1c-0.5-0.3-0.8-0.7-1-1
		c-0.2-0.4-0.3-0.9-0.3-1.4c0-1,0.4-1.7,1.2-2.3c0.8-0.6,1.8-0.8,3.2-0.8c1.3,0,2.5,0.3,3.7,0.8l-0.6,1.5c-1.2-0.5-2.3-0.7-3.2-0.7
		c-0.8,0-1.5,0.1-1.9,0.4c-0.4,0.3-0.6,0.6-0.6,1.1c0,0.3,0.1,0.6,0.2,0.8c0.2,0.2,0.4,0.4,0.8,0.6c0.4,0.2,1,0.5,2.1,0.9
		c1.4,0.5,2.3,1,2.8,1.5C103.2,77.4,103.4,78,103.4,78.8L103.4,78.8z M111.3,82.2c-1.7,0-3.1-0.5-4.1-1.6c-1-1.1-1.5-2.5-1.5-4.4
		c0-1.9,0.5-3.4,1.4-4.5c0.9-1.1,2.2-1.7,3.8-1.7c1.5,0,2.6,0.5,3.5,1.5s1.3,2.3,1.3,3.8v1.1h-8.1c0,1.4,0.4,2.4,1,3.1
		c0.7,0.7,1.6,1.1,2.8,1.1c1.3,0,2.5-0.3,3.8-0.8v1.6c-0.6,0.3-1.2,0.5-1.8,0.6C112.8,82.2,112.1,82.2,111.3,82.2L111.3,82.2z
		 M110.8,71.5c-0.9,0-1.7,0.3-2.3,0.9c-0.6,0.6-0.9,1.5-1,2.6h6.2c0-1.1-0.3-2-0.8-2.6C112.5,71.8,111.8,71.5,110.8,71.5L110.8,71.5
		z M125.9,82l-0.4-1.7h-0.1c-0.6,0.7-1.2,1.2-1.8,1.5c-0.6,0.3-1.3,0.4-2.2,0.4c-1.2,0-2.1-0.3-2.7-0.9c-0.7-0.6-1-1.5-1-2.6
		c0-2.4,1.9-3.6,5.7-3.7l2-0.1v-0.7c0-0.9-0.2-1.6-0.6-2c-0.4-0.4-1-0.7-1.9-0.7c-1,0-2.1,0.3-3.3,0.9l-0.5-1.4
		c0.6-0.3,1.2-0.6,1.9-0.7c0.7-0.2,1.4-0.3,2.1-0.3c1.4,0,2.4,0.3,3.1,0.9c0.7,0.6,1,1.6,1,3v8H125.9L125.9,82z M121.9,80.7
		c1.1,0,2-0.3,2.6-0.9c0.6-0.6,0.9-1.5,0.9-2.6v-1.1l-1.8,0.1c-1.4,0-2.4,0.3-3.1,0.7c-0.6,0.4-0.9,1-0.9,1.8c0,0.6,0.2,1.1,0.6,1.5
		C120.6,80.6,121.2,80.7,121.9,80.7L121.9,80.7z M136.3,70c0.5,0,1,0,1.4,0.1l-0.2,1.7c-0.5-0.1-0.9-0.2-1.3-0.2
		c-1,0-1.8,0.4-2.4,1.2c-0.7,0.8-1,1.7-1,2.9V82h-1.8V70.2h1.5l0.2,2.2h0.1c0.4-0.8,1-1.4,1.6-1.8C134.9,70.2,135.5,70,136.3,70
		L136.3,70z M144.2,82.2c-1.7,0-3-0.5-4-1.6c-0.9-1-1.4-2.5-1.4-4.5c0-2,0.5-3.5,1.4-4.6c0.9-1.1,2.3-1.6,4.1-1.6
		c0.6,0,1.1,0.1,1.7,0.2c0.6,0.1,1,0.3,1.3,0.4l-0.5,1.5c-0.4-0.2-0.8-0.3-1.3-0.4c-0.5-0.1-0.9-0.2-1.2-0.2c-2.4,0-3.6,1.5-3.6,4.6
		c0,1.4,0.3,2.6,0.9,3.3c0.6,0.8,1.4,1.2,2.6,1.2c1,0,2-0.2,3-0.6v1.6C146.3,82,145.4,82.2,144.2,82.2L144.2,82.2z M158,82v-7.6
		c0-1-0.2-1.7-0.7-2.2c-0.4-0.5-1.1-0.7-2.1-0.7c-1.2,0-2.1,0.3-2.7,1c-0.6,0.7-0.9,1.8-0.9,3.3V82h-1.8V65.3h1.8v5.1
		c0,0.6,0,1.1-0.1,1.5h0.1c0.4-0.6,0.9-1,1.5-1.3c0.6-0.3,1.4-0.5,2.2-0.5c1.4,0,2.5,0.3,3.2,1c0.7,0.7,1.1,1.8,1.1,3.3V82H158
		L158,82z"/>
</g>
</svg>
