<?xml version="1.0" encoding="utf-8"?>
<!-- Generator: Adobe Illustrator 19.0.0, SVG Export Plug-In . SVG Version: 6.00 Build 0)  -->
<svg version="1.1" id="Layer_1" xmlns="http://www.w3.org/2000/svg" xmlns:xlink="http://www.w3.org/1999/xlink" x="0px" y="0px"
	 viewBox="34 21.3 168.3 58.7" style="enable-background:new 34 21.3 168.3 58.7;" xml:space="preserve">
<style type="text/css">
	.st0{fill:#3BBAE3;}
	.st1{fill:#1B9AD1;}
	.st2{fill:#086C9E;}
</style>
<polygon class="st0" points="62.7,36.3 75.1,43.4 82.7,39.1 62.7,27.7 42.7,39.1 50.3,43.4 "/>
<polygon class="st1" points="75.1,43.4 75.1,43.4 75.1,57.9 62.7,64.9 62.7,73.8 82.7,62.4 82.7,39.1 "/>
<polygon class="st2" points="50.3,66.7 42.7,62.4 42.7,39.1 50.3,43.4 "/>
<path d="M106.8,51.4c2,0,3.2-1,3.2-2.6v-0.1c0-1.7-1.2-2.7-3.2-2.7h-2.6v5.3L106.8,51.4z M98.5,41.3h8.7c5.1,0,8.4,2.6,8.4,7.1v0.1
	c0,4.8-3.7,7.3-8.7,7.3h-2.8v5.8h-5.6V41.3z"/>
<path d="M128.4,51c1.9,0,3-0.9,3-2.4v-0.1c0-1.6-1.2-2.4-3-2.4h-3.7V51H128.4z M119.1,41.3h9.6c3.1,0,5.2,0.8,6.6,2.2
	c1.2,1.2,1.8,2.7,1.8,4.7v0.1c0,3.1-1.6,5.1-4.2,6.2l4.8,7.1h-6.5l-4.1-6.1h-2.4v6.1h-5.6V41.3z"/>
<rect x="141.2" y="41.3" width="5.6" height="20.2"/>
<polygon points="151.1,41.3 157,41.3 161.8,49.1 166.7,41.3 172.6,41.3 172.6,61.5 167,61.5 167,49.9 161.8,57.8 161.7,57.8 
	156.6,50 156.6,61.5 151.1,61.5 "/>
<polygon points="176.8,41.3 193,41.3 193,46.1 182.3,46.1 182.3,49.1 192,49.1 192,53.6 182.3,53.6 182.3,56.8 193.2,56.8 
	193.2,61.5 176.8,61.5 "/>
</svg>
