<?xml version="1.0" encoding="utf-8"?>
<!-- Generator: Adobe Illustrator 19.0.0, SVG Export Plug-In . SVG Version: 6.00 Build 0)  -->
<svg version="1.1" id="Layer_1" xmlns="http://www.w3.org/2000/svg" xmlns:xlink="http://www.w3.org/1999/xlink" x="0px" y="0px"
	 viewBox="-37.7 20.2 168.3 58.7" style="enable-background:new -37.7 20.2 168.3 58.7;" xml:space="preserve">
<style type="text/css">
	.st0{opacity:0.67;}
	.st1{fill:#3BBAE3;}
	.st2{fill:#1B9AD1;}
	.st3{fill:#086C9E;}
	.st4{fill:#FFFFFF;}
</style>
<rect x="-37.7" y="20.2" class="st0" width="168.3" height="58.7"/>
<polygon class="st1" points="-9,35.2 3.4,42.3 11,38 -9,26.6 -29,38 -21.4,42.3 "/>
<polygon class="st2" points="3.4,42.3 3.4,42.3 3.4,56.8 -9,63.8 -9,72.7 11,61.3 11,38 "/>
<polygon class="st3" points="-21.4,65.6 -29,61.3 -29,38 -21.4,42.3 -21.4,65.6 "/>
<path class="st4" d="M35.1,50.3c2,0,3.2-1,3.2-2.6v-0.1c0-1.7-1.2-2.7-3.2-2.7h-2.6v5.3L35.1,50.3z M26.8,40.2h8.7
	c5.1,0,8.4,2.6,8.4,7.1v0.1c0,4.8-3.7,7.3-8.7,7.3h-2.8v5.8h-5.6L26.8,40.2z"/>
<path class="st4" d="M56.7,49.9c1.9,0,3-0.9,3-2.4v-0.1c0-1.6-1.2-2.4-3-2.4H53v4.9L56.7,49.9z M47.4,40.2H57c3.1,0,5.2,0.8,6.6,2.2
	c1.2,1.2,1.8,2.7,1.8,4.7v0.1c0,3.1-1.6,5.1-4.2,6.2l4.8,7.1h-6.5l-4.1-6.1H53v6.1h-5.6V40.2z"/>
<rect x="69.5" y="40.2" class="st4" width="5.6" height="20.2"/>
<polygon class="st4" points="79.4,40.2 85.3,40.2 90.1,48 95,40.2 100.9,40.2 100.9,60.4 95.3,60.4 95.3,48.8 90.1,56.7 90,56.7 
	84.9,48.9 84.9,60.4 79.4,60.4 "/>
<polygon class="st4" points="105.1,40.2 121.3,40.2 121.3,45 110.6,45 110.6,48 120.3,48 120.3,52.5 110.6,52.5 110.6,55.7 
	121.5,55.7 121.5,60.4 105.1,60.4 "/>
</svg>
