<?xml version="1.0" encoding="utf-8"?>
<!-- Generator: Adobe Illustrator 16.0.0, SVG Export Plug-In . SVG Version: 6.00 Build 0)  -->
<!DOCTYPE svg PUBLIC "-//W3C//DTD SVG 1.1//EN" "http://www.w3.org/Graphics/SVG/1.1/DTD/svg11.dtd">
<svg version="1.1" id="Layer_1" xmlns="http://www.w3.org/2000/svg" xmlns:xlink="http://www.w3.org/1999/xlink" x="0px" y="0px"
	 width="322.464px" height="105.081px" viewBox="0 0 322.464 105.081" enable-background="new 0 0 322.464 105.081"
	 xml:space="preserve">
<path fill="#2AB3C3" d="M171.003,52.329c0-4.938-4.002-8.943-8.94-8.943c-4.935,0-8.94,4.005-8.94,8.943
	c0,4.937,4.006,8.938,8.94,8.938C167.001,61.267,171.003,57.266,171.003,52.329"/>
<path fill="#2AB3C3" d="M161.953,3.246c-27.209,0-49.257,22.059-49.257,49.257c0,27.219,22.048,49.267,49.257,49.267
	c27.206,0,49.26-22.048,49.26-49.267C211.213,25.305,189.158,3.246,161.953,3.246 M161.953,16.745
	c10.839,0,20.552,4.833,27.111,12.449l-11.967,6.916c-3.979-3.689-9.289-5.955-15.144-5.955c-12.347,0-22.345,10.011-22.345,22.348
	c0,1.698,0.202,3.339,0.55,4.926l-11.961,6.901c-1.293-3.697-2.012-7.675-2.012-11.827
	C126.185,32.755,142.201,16.745,161.953,16.745 M146.307,52.503c0-8.634,7.011-15.639,15.646-15.639
	c8.637,0,15.645,7.005,15.645,15.639c0,8.641-7.008,15.648-15.645,15.648C153.318,68.151,146.307,61.144,146.307,52.503
	 M161.953,88.265c-10.781,0-20.449-4.782-27.007-12.331l11.982-6.913c3.966,3.613,9.23,5.843,15.025,5.843
	c12.349,0,22.344-10.017,22.344-22.36c0-1.636-0.192-3.226-0.525-4.764l11.979-6.91c1.269,3.66,1.963,7.585,1.963,11.674
	C197.714,72.249,181.704,88.265,161.953,88.265"/>
<polyline fill="#2AB3C3" points="93.277,54.043 93.148,54.194 93.411,54.462 93.277,54.043 "/>
<polyline fill="#2AB3C3" points="93.148,54.191 93.411,54.455 93.277,54.038 93.148,54.191 "/>
<polyline fill="#2AB3C3" points="93.148,54.191 93.411,54.455 93.277,54.038 93.148,54.191 "/>
<path fill="#2AB3C3" d="M318.97,78.694l0.073-0.03l-21.21-53.905c-1.263-4.25-5.204-7.346-9.86-7.346h-10.206
	c-4.217,0-7.063,2.529-8.672,6.138l0.021,0.019l-0.021-0.003l-17.115,48.08c-0.532,1.214-1.483,2.061-2.911,2.061h-5.847
	c-1.91,0-3.461-1.55-3.461-3.461V31.449h12.766c7.121,0,12.172-6.891,12.172-13.999h-62.42c3.627,4.163,6.632,8.862,8.849,13.999
	h14.575v43.362c0,7.117,5.959,12.884,13.068,12.884h14.508c5.277,0,8.846-3.161,10.836-7.692l0.006-0.037
	c0.178-0.317,0.343-0.654,0.468-1.003c0.016-0.073,0.034-0.141,0.053-0.211l2.326-6.424l12.968-37.448l-0.016-0.015l0.422-1.186
	c0.432-1.321,1.37-2.278,2.834-2.278c1.443,0,2.67,0.935,3.116,2.228l1.271,3.247h-0.003l0.673,1.728l8.362,21.021l-11.475-0.009
	l0.015,0.019c-3.745,0.085-6.738,3.348-6.751,7.105c0,3.81,3.088,6.916,6.901,6.916h16.725l0.015,0.043l0.605,1.55l3.214,7.895
	c0.884,2.67,3.352,4.62,6.28,4.742c0.076,0,0.146,0.004,0.229,0.007h0.058c0.062,0,0.123-0.003,0.181-0.007
	c0.168,0,0.333-0.006,0.501-0.024c0.028-0.003,0.059-0.006,0.086-0.012c0.597-0.062,1.202-0.202,1.795-0.429
	C318.45,86.057,320.199,82.183,318.97,78.694"/>
<path fill="#2AB3C3" d="M111.041,72.585L93.311,54.02l15.389-16.428c1.452-2.087,2.287-4.598,2.287-7.313
	c0-7.086-5.745-12.826-12.82-12.826H73.329c-7.084,0-12.826,5.74-12.826,12.826l0.003,40.688c0,0.027,0.009,0.101,0,0.138
	c-0.024,1.458-2.192,2.587-3.65,2.587c-0.786,0-1.504-0.361-1.979-0.921l-0.003,0.003L37.091,54.141l15.551-16.598
	c1.437-2.073,2.278-4.595,2.278-7.31c0-7.075-5.733-12.825-12.817-12.825h-25.1c-7.081,0-12.826,5.75-12.826,12.825v50.815H4.18
	c0.098,3.736,3.36,6.732,7.115,6.732c3.81,0,6.901-3.094,6.901-6.901c0-0.076-0.012-0.144-0.016-0.223l0.003-6.978V34.231
	c0.226-1.603,1.59-2.83,3.259-2.83h11.233c1.813,0,3.274,1.244,3.274,3.065c0,0.933-0.385,1.778-1.018,2.373l-9.148,9.236
	c-1.993,2.12-3.21,4.975-3.21,8.118c0,3.025,1.128,5.788,3.002,7.888l20.742,21.614c2.868,2.571,6.595,4.177,10.76,4.177
	c9.921,0,17.532-7.229,17.532-16.15l-0.024-37.05c0-1.807,1.461-3.271,3.274-3.271h10.879c1.81,0,3.281,1.286,3.281,3.101
	c0,0.933-0.394,1.782-1.024,2.382l-9.148,9.232c-1.997,2.12-3.217,4.979-3.217,8.125c0,3.02,1.135,5.783,3,7.875l20.88,21.439
	c2.858,2.571,6.641,4.14,10.793,4.14c0.593,0,1.18-0.036,1.758-0.095c1.935-0.181,3.751-0.647,5.427-1.333
	c-3.149-3.871-5.779-8.179-7.767-12.832C112.063,73.355,111.46,73.065,111.041,72.585 M93.148,54.191l0.128-0.153l0.134,0.417
	L93.148,54.191z"/>
</svg>
