<?xml version="1.0" encoding="utf-8"?>
<!-- Generator: Adobe Illustrator 19.0.0, SVG Export Plug-In . SVG Version: 6.00 Build 0)  -->
<svg version="1.1" id="Layer_1" xmlns="http://www.w3.org/2000/svg" xmlns:xlink="http://www.w3.org/1999/xlink" x="0px" y="0px"
	 viewBox="0 0 6000 1810" style="enable-background:new 0 0 6000 1810;" xml:space="preserve">
<style type="text/css">
	.st0{fill:#4F8BBF;}
	.st1{fill:#231F20;}
	.st2{fill:url(#SVGID_1_);stroke:url(#SVGID_2_);stroke-width:0.5;stroke-miterlimit:10;}
	.st3{fill:url(#SVGID_3_);stroke:url(#SVGID_4_);stroke-width:0.5;stroke-miterlimit:10;}
	.st4{opacity:0.3;fill:#231F20;stroke:#000000;stroke-width:5;stroke-miterlimit:10;}
</style>
<g>
	<g>
		<g>
			<path class="st0" d="M1320,1369.7h144.4c30,0,54,24.3,54,54.2c0,29.8-24.1,54-54,54h-307c22.3,63.1,82.5,108.3,153.3,108.3h153.7
				c89.7,0,162.5-72.5,162.5-162.3c0-89.7-72.8-162.5-162.5-162.5H1320c-30,0-54.3-24.3-54.3-54.2c0-29.8,24.3-54.1,54.3-54.1h270.8
				c-22.3-63-82.5-108.2-153.3-108.2H1320c-89.7,0-162.5,72.5-162.5,162.3C1157.4,1296.9,1230.2,1369.7,1320,1369.7z"/>
			<path class="st0" d="M2673.9,1044.9h-117.5c-70.8,0-131,45.2-153.3,108.2h270.8c29.8,0,54,24.3,54,54.1v54.2
				c-66.1,0-132.3,0-198.4,0c-89.7,0-162.5,72.8-162.5,162.5c0,89.8,72.8,162.3,162.5,162.3h144.4c89.7,0,162.3-72.5,162.3-162.3
				c0-73.2,0-143.6,0-216.8C2836.2,1117.4,2763.6,1044.9,2673.9,1044.9z M2673.9,1477.9h-144.4c-30,0-54.3-24.3-54.3-54
				c0-30,24.3-54.2,54.3-54.2h197.8l0.7,54.2C2727.9,1453.7,2703.6,1477.9,2673.9,1477.9z"/>
			<path class="st0" d="M4641.6,1044.9c89.7,0,162.5,72.5,162.5,162.3c0,73.2,0,143.6,0,216.8c0,89.8-72.8,162.3-162.5,162.3h-144.5
				c-89.7,0-162.5-72.5-162.5-162.3c0-89.7,72.8-162.5,162.5-162.5c66.2,0,132.4,0,198.5,0v-54.2c0-29.8-24.3-54.1-54-54.1h-270.9
				c22.3-63,82.5-108.2,153.3-108.2H4641.6z M4641.6,1477.9L4641.6,1477.9c29.7,0,54-24.3,54-54l-0.7-54.2h-197.8
				c-30,0-54.2,24.3-54.2,54.2c0,29.8,24.2,54,54.2,54H4641.6z"/>
			<path class="st0" d="M5507.9,1586.2c-89.8,0-162.6-72.5-162.6-162.3c0-73.2,0-143.6,0-216.8c0-89.8,72.8-162.3,162.6-162.3h144.4
				c89.7,0,162.5,72.5,162.5,162.3c0,89.7-72.8,162.5-162.5,162.5l0,0c-66.2,0-132.3,0-198.5-0.2v54.5c0,29.8,24.3,54,54,54h270.8
				c-22.3,63.1-82.5,108.3-153.3,108.3H5507.9z M5507.9,1153.1L5507.9,1153.1c-29.8,0-54,24.3-54,54.1l0.7,54.2h197.8
				c30,0,54.2-24.3,54.2-54.2c0-29.8-24.3-54.1-54.2-54.1H5507.9z"/>
			<path class="st0" d="M1843.4,1477.9h144.4c30,0,54.3-24.3,54.3-54v-216.8c0-29.8-24.3-54.1-54.3-54.1h-144.4
				c-30,0-54.2,24.3-54.2,54.1v216.8C1789.2,1453.7,1813.4,1477.9,1843.4,1477.9z M2150.4,1207.2L2150.4,1207.2v216.8
				c0,89.8-72.8,162.3-162.5,162.3h-144.4c-89.8,0-162.5-72.5-162.5-162.3v-216.8c0-89.8,72.7-162.3,162.5-162.3h144.4
				C2077.6,1044.9,2150.4,1117.4,2150.4,1207.2z"/>
			<path class="st0" d="M5245.9,1153.1c-22.3-63-82.5-108.2-153.3-108.2h-126.3V864.3c-63.1,22.3-108.3,82.5-108.3,153.3v406.4
				c0,89.8,72.8,162.3,162.6,162.3h117.5c70.7,0,131-45.2,153.3-108.3h-270.8c-30,0-54.3-24.3-54.3-54v-270.8
				C5059.7,1153.1,5152.7,1153.1,5245.9,1153.1z"/>
			<path class="st0" d="M3576.5,1477.9h144.4c29.8,0,54-24.3,54-54v-216.8c0-29.8-24.3-54.1-54-54.1h-144.4
				c-30,0-54.2,24.3-54.2,54.1v216.8C3522.2,1453.7,3546.5,1477.9,3576.5,1477.9z M3883.4,1207.2L3883.4,1207.2v216.8
				c0,89.8-72.7,162.3-162.5,162.3h-144.4c-89.7,0-162.5-72.5-162.5-162.3v-216.8c0-89.8,72.8-162.3,162.5-162.3h144.4
				C3810.7,1044.9,3883.4,1117.4,3883.4,1207.2z"/>
			<path class="st0" d="M2998.8,1044.9V864.3c-63.1,22.3-108.3,82.5-108.3,153.3v406.4c0,89.8,72.8,162.3,162.5,162.3h144.4
				c89.7,0,162.3-72.5,162.3-162.3v-216.8c0-89.8-72.5-162.3-162.3-162.3H2998.8z M3053,1477.9L3053,1477.9c-30,0-54.2-24.3-54.2-54
				v-216.8l0.2-54.1h198.5c29.8,0,54,24.3,54,54.1v216.8c0,29.8-24.3,54-54,54H3053z"/>
			<path class="st0" d="M4099.9,1044.9h81.4c70.8,0,131,45.2,153.3,108.2h-234.6c-30,0-54.2,24.3-54.2,54.1v379.1h-108.3v-379.1
				C3937.4,1117.4,4010.2,1044.9,4099.9,1044.9z"/>
			<path class="st0" d="M2312.7,1017.5c0,189.7,0,379.3,0,568.7h-108.3c0-240.6,0-481.4,0-722
				C2267.5,886.5,2312.7,946.7,2312.7,1017.5z"/>
		</g>
	</g>
	<g>
		<path class="st0" d="M460.8,1488.5c-87-3.3-171.2-33.9-234.9-94.5c26.8,124.9,122.8,199.6,249.2,199.8h225.6
			c341.3,0,341.3-526.4,0-526.4h-219c-28.8,0-52.5,23.5-52.5,52.4c0,28.9,23.7,52.6,52.6,52.6h210.9c87.1,0,158.2,71.1,158.2,158.3
			c0,74.6-52.4,137.9-123.1,154c-10.6,2.5-22,3.1-33.3,3.8H460.8z"/>
		<path class="st0" d="M715.4,962c87,3.3,171.2,33.9,235,94.5c-26.9-124.9-122.7-199.6-249-199.8H475.5
			c-341.3,0-341.3,526.3,0,526.3h219c28.7,0,52.5-23.7,52.5-52.4c0-28.9-23.5-52.6-52.5-52.6H483.5c-87.2,0-158.3-71.1-158.3-158.3
			c0-74.6,52.4-137.9,123.1-154c10.6-2.5,22-3.2,33.5-3.8H715.4z"/>
	</g>
</g>
<g>
	<g>
		<g>
			<path class="st1" d="M4416.2,657.2h-296.4c-28.3,0-51.3-23-51.3-51.3v-81.7c0-28.3,23-51.3,51.3-51.3h252
				c21.1,0,38.2-17.1,38.2-38.2v-81.7c0-21.1-17.2-38.2-38.2-38.2h-295.9v-13h295.9c28.3,0,51.3,23,51.3,51.3v81.7
				c0,28.3-23,51.3-51.3,51.3h-252c-21.1,0-38.2,17.1-38.2,38.2v81.7c0,21.1,17.1,38.2,38.2,38.2h296.4V657.2z"/>
		</g>
	</g>
</g>
<g>
	<g>
		<g>
			<path class="st1" d="M1823.8,647.2V484H1624v163.1c0,1.7-0.6,3.2-1.8,4.5c-1.2,1.3-2.6,2-4.3,2c-4.4,0-6.5-2.2-6.5-6.5V308.8
				c0-4.3,2.2-6.5,6.5-6.5c1.7,0,3.1,0.7,4.3,2c1.2,1.3,1.8,2.8,1.8,4.5v162.7h199.8V308.8c0-4.3,2.1-6.5,6.3-6.5
				c4.2,0,6.3,2.2,6.3,6.5v338.3c0,4.4-2.1,6.5-6.3,6.5C1825.9,653.7,1823.8,651.5,1823.8,647.2"/>
		</g>
	</g>
	<g>
		<g>
			<path class="st1" d="M2271,653.7h-187.3c-4,0-6-2.2-6-6.5V308.8c0-3.7,2-5.8,6-6.5H2271c4,0,6,2.1,6,6.3c0,4.2-2,6.3-6,6.3
				h-180.7v156.6h159.1c4,0,6,2.1,6,6.3c0,4.2-2,6.3-6,6.3h-159.1v157.1H2271c4,0,6,2.1,6,6.3C2277,651.6,2275,653.7,2271,653.7"/>
		</g>
	</g>
	<g>
		<g>
			<path class="st1" d="M2679.5,653.7h-187.2c-4.4,0-6.5-2.2-6.5-6.5V308.8c0-4.3,2.1-6.5,6.3-6.5c4.2,0,6.3,2.2,6.3,6.5v332.3
				h181.2c4.4,0,6.5,2.1,6.5,6.3C2686.1,651.6,2683.9,653.7,2679.5,653.7"/>
		</g>
	</g>
	<g>
		<g>
			<path class="st1" d="M3072.6,653.7h-187.2c-4.4,0-6.5-2.2-6.5-6.5V308.8c0-4.3,2.1-6.5,6.3-6.5c4.2,0,6.3,2.2,6.3,6.5v332.3
				h181.2c4.4,0,6.5,2.1,6.5,6.3C3079.1,651.6,3076.9,653.7,3072.6,653.7"/>
		</g>
	</g>
</g>
<g>
	<g>
		<linearGradient id="SVGID_1_" gradientUnits="userSpaceOnUse" x1="3224.9119" y1="386.0544" x2="3575.9404" y2="386.0544">
			<stop  offset="0" style="stop-color:#84FC07"/>
			<stop  offset="0.33" style="stop-color:#17A5D2"/>
			<stop  offset="0.68" style="stop-color:#17A5D2"/>
			<stop  offset="1" style="stop-color:#DF484B"/>
		</linearGradient>
		<linearGradient id="SVGID_2_" gradientUnits="userSpaceOnUse" x1="3224.6497" y1="386.0544" x2="3576.2026" y2="386.0544">
			<stop  offset="0" style="stop-color:#84FC07"/>
			<stop  offset="0.33" style="stop-color:#17A5D2"/>
			<stop  offset="0.68" style="stop-color:#17A5D2"/>
			<stop  offset="1" style="stop-color:#DF484B"/>
		</linearGradient>
		<path class="st2" d="M3238,469.7c4.4-85.9,75.5-154.4,162.4-154.4c87,0,158,68.6,162.4,154.4h13.1c-4.4-93-81.4-167.3-175.5-167.3
			c-94.1,0-171.1,74.3-175.5,167.3H3238z"/>
	</g>
</g>
<g>
	<g>
		<linearGradient id="SVGID_3_" gradientUnits="userSpaceOnUse" x1="3224.9119" y1="570.2106" x2="3575.9404" y2="570.2106">
			<stop  offset="0" style="stop-color:#69FC07"/>
			<stop  offset="0.33" style="stop-color:#FFDB14"/>
			<stop  offset="0.68" style="stop-color:#FFDB14"/>
			<stop  offset="1" style="stop-color:#D24850"/>
		</linearGradient>
		<linearGradient id="SVGID_4_" gradientUnits="userSpaceOnUse" x1="3224.6497" y1="570.2106" x2="3576.2026" y2="570.2106">
			<stop  offset="0" style="stop-color:#69FC07"/>
			<stop  offset="0.33" style="stop-color:#FFDB14"/>
			<stop  offset="0.68" style="stop-color:#FFDB14"/>
			<stop  offset="1" style="stop-color:#D24850"/>
		</linearGradient>
		<path class="st3" d="M3562.8,486.6c-4.4,85.9-75.4,154.4-162.4,154.4c-87,0-158-68.6-162.4-154.4h-13.1
			c4.4,93,81.5,167.3,175.5,167.3c94.1,0,171.1-74.3,175.5-167.3H3562.8z"/>
	</g>
</g>
<rect x="3827.5" y="154.7" class="st4" width="1.3" height="671.4"/>
</svg>
